<svg width="60" height="60" viewBox="0 0 60 60" fill="none" xmlns="http://www.w3.org/2000/svg">
<path fill-rule="evenodd" clip-rule="evenodd" d="M39.601 17.514C36.4177 15.1796 33.4797 14.4487 29.3673 14.5943C25.342 14.7369 21.4822 16.2316 18.4107 18.8372C15.3393 21.4429 13.2354 25.0075 12.4387 28.9557C11.6419 32.904 12.1988 37.0055 14.0195 40.5984C15.8401 44.1912 18.8183 47.0658 22.4733 48.7582C26.1283 50.4505 30.247 50.8619 34.1646 49.926C38.0821 48.9901 41.5701 46.7614 44.0654 43.5996C46.5608 40.4379 47.918 36.5276 47.918 32.4998V30.4164H52.0846V32.4998C52.0846 37.4643 50.4118 42.284 47.3362 46.181C44.2605 50.078 39.9614 52.825 35.1328 53.9786C30.3041 55.1322 25.2277 54.6251 20.7226 52.5392C16.2176 50.4533 12.5468 46.9102 10.3028 42.4818C8.05873 38.0534 7.37232 32.998 8.35433 28.1316C9.33634 23.2651 11.9295 18.8715 15.7152 15.6599C19.501 12.4483 24.2585 10.6059 29.2199 10.4303C34.0942 10.2577 37.9969 11.1707 42.065 14.154L43.745 15.386L41.281 18.746L39.601 17.514Z" fill="#1E1E1E"/>
<path fill-rule="evenodd" clip-rule="evenodd" d="M39.5992 4.76562L44.4167 16.0568L43.1219 18.8629L31.1334 22.6093L29.8906 18.6323L39.6802 15.5731L35.7667 6.40079L39.5992 4.76562Z" fill="#1E1E1E"/>
</svg>
