<svg width="36" height="36" viewBox="0 0 36 36" fill="none" xmlns="http://www.w3.org/2000/svg">
<path d="M2.87988 11.5221C2.87988 11.3233 3.04106 11.1621 3.23988 11.1621H32.7599C32.9587 11.1621 33.1199 11.3233 33.1199 11.5221V30.2421C33.1199 30.4409 32.9587 30.6021 32.7599 30.6021H3.23988C3.04106 30.6021 2.87988 30.4409 2.87988 30.2421V11.5221Z" fill="#E8E8E8"/>
<path d="M2.87988 7.2018C2.87988 7.00297 3.04106 6.8418 3.23988 6.8418H32.7599C32.9587 6.8418 33.1199 7.00297 33.1199 7.2018V11.1618H2.87988V7.2018Z" fill="#787878"/>
<path d="M6.48047 14.7623C6.48047 14.5635 6.64165 14.4023 6.84047 14.4023H9.72047C9.91929 14.4023 10.0805 14.5635 10.0805 14.7623V18.0023H6.48047V14.7623Z" fill="#BBBBBB"/>
<path d="M12.9604 14.7623C12.9604 14.5635 13.1216 14.4023 13.3204 14.4023H16.2004C16.3993 14.4023 16.5604 14.5635 16.5604 14.7623V18.0023H12.9604V14.7623Z" fill="#BBBBBB"/>
<path d="M19.4404 14.7623C19.4404 14.5635 19.6016 14.4023 19.8004 14.4023H22.6804C22.8793 14.4023 23.0404 14.5635 23.0404 14.7623V18.0023H19.4404V14.7623Z" fill="#BBBBBB"/>
<path d="M25.9204 14.7623C25.9204 14.5635 26.0816 14.4023 26.2804 14.4023H29.1604C29.3592 14.4023 29.5204 14.5635 29.5204 14.7623V18.0023H25.9204V14.7623Z" fill="#BBBBBB"/>
<path d="M6.48047 21.2418C6.48047 21.043 6.64165 20.8818 6.84047 20.8818H9.72047C9.91929 20.8818 10.0805 21.043 10.0805 21.2418V24.4818H6.48047V21.2418Z" fill="#BBBBBB"/>
<path d="M12.9604 21.2418C12.9604 21.043 13.1216 20.8818 13.3204 20.8818H16.2004C16.3993 20.8818 16.5604 21.043 16.5604 21.2418V24.4818H12.9604V21.2418Z" fill="#BBBBBB"/>
<path d="M19.4404 21.2418C19.4404 21.043 19.6016 20.8818 19.8004 20.8818H22.6804C22.8793 20.8818 23.0404 21.043 23.0404 21.2418V24.4818H19.4404V21.2418Z" fill="#BBBBBB"/>
<path d="M25.9204 21.2418C25.9204 21.043 26.0816 20.8818 26.2804 20.8818H29.1604C29.3592 20.8818 29.5204 21.043 29.5204 21.2418V24.4818H25.9204V21.2418Z" fill="#BBBBBB"/>
<path d="M8.28027 4.68227C8.28027 4.48344 8.44145 4.32227 8.64027 4.32227H10.0803C10.2791 4.32227 10.4403 4.48344 10.4403 4.68227V8.64227H8.28027V4.68227Z" fill="#BBBBBB"/>
<path d="M25.5596 4.68227C25.5596 4.48344 25.7207 4.32227 25.9196 4.32227H27.3596C27.5584 4.32227 27.7196 4.48344 27.7196 4.68227V8.64227H25.5596V4.68227Z" fill="#BBBBBB"/>
</svg>
