<svg width="60" height="60" viewBox="0 0 60 60" fill="none" xmlns="http://www.w3.org/2000/svg">
<path d="M47.7017 37.4015C46.0493 40.2635 43.7166 42.6738 40.9102 44.4189C38.1038 46.164 34.9104 47.1901 31.6127 47.4062C28.3151 47.6224 25.015 47.0219 22.0048 45.658C18.9947 44.2941 16.3673 42.2089 14.3555 39.5871C12.3437 36.9653 11.0096 33.8878 10.4713 30.6272C9.93295 27.3666 10.2071 24.0236 11.2693 20.8942C12.3316 17.7649 14.1492 14.9458 16.5612 12.6867C18.9733 10.4276 21.9052 8.79825 25.0973 7.94292L24.676 9.90509C21.5681 24.3813 32.9046 37.919 47.7017 37.4015Z" fill="#1E1E1E"/>
</svg>
