<svg width="60" height="60" viewBox="0 0 60 60" fill="none" xmlns="http://www.w3.org/2000/svg">
<path fill-rule="evenodd" clip-rule="evenodd" d="M25.8182 24.6419L16.667 8.42742L28.6202 5L29.4506 23.5996L29.4031 23.6133H33.2157H34.1828H35.4882V43.4773H32.6553H28.1891H25.9201V24.6126L25.8182 24.6419ZM33.3288 54.3722C34.0328 53.9519 34.5658 53.3813 34.9315 52.6637C35.2971 51.9426 35.4782 51.1294 35.4782 50.2136C35.4782 49.2978 35.2971 48.4571 34.9315 47.7395C34.5658 47.0219 34.0328 46.4581 33.3288 46.048C32.6249 45.638 31.7672 45.4329 30.7557 45.4329C29.7442 45.4329 28.8284 45.6482 28.1074 46.0754C27.3864 46.5025 26.8396 47.0766 26.4706 47.7976C26.1015 48.5186 25.9136 49.3217 25.9136 50.2067C25.9136 51.0918 26.0981 51.9495 26.4706 52.6705C26.843 53.3881 27.3864 53.9588 28.1074 54.3757C28.8284 54.7926 29.71 55.001 30.7557 55.001C31.8014 55.001 32.6249 54.7926 33.3288 54.3722Z" fill="#1E1E1E"/>
</svg>
