<svg width="23" height="19" viewBox="0 0 23 19" fill="none" xmlns="http://www.w3.org/2000/svg">
<path d="M0.944336 17.5557V1.61127C0.944336 1.18172 1.29256 0.833496 1.72211 0.833496H6.36141C6.62147 0.833496 6.86431 0.963464 7.00857 1.17984L8.88011 3.98715C9.02436 4.20353 9.2672 4.3335 9.52726 4.3335H18.8332C19.2628 4.3335 19.611 4.68172 19.611 5.11127V17.5557C19.611 17.9853 19.2628 18.3335 18.8332 18.3335H1.72211C1.29256 18.3335 0.944336 17.9853 0.944336 17.5557Z" fill="#787878"/>
<path d="M3.90468 6.86175L1.195 17.3617C1.06795 17.8541 1.43967 18.3339 1.9481 18.3339H19.0267C19.3727 18.3339 19.6772 18.1053 19.7736 17.7729L22.822 7.27295C22.9665 6.77538 22.5932 6.27832 22.0751 6.27832H4.65778C4.30308 6.27832 3.99331 6.5183 3.90468 6.86175Z" fill="#1E1E1E"/>
</svg>
