<svg width="28" height="28" viewBox="0 0 28 28" fill="none" xmlns="http://www.w3.org/2000/svg">
<path d="M20.7974 23.554C20.7799 23.6942 20.6608 23.7993 20.5195 23.7993L6.87187 23.7993C6.73153 23.7993 6.61287 23.6954 6.59433 23.5563L4.42899 7.31632C4.40661 7.14846 4.5372 6.99932 4.70654 6.99932L22.5496 6.99932C22.718 6.99932 22.8483 7.14693 22.8274 7.31405L20.7974 23.554Z" fill="#BBBBBB"/>
<path d="M24.2666 7.27957C24.2666 7.43421 24.1412 7.55957 23.9866 7.55957L3.5466 7.55957C3.39196 7.55957 3.2666 7.43421 3.2666 7.27957L3.2666 4.47957C3.2666 4.32493 3.39196 4.19957 3.5466 4.19957L23.9866 4.19957C24.1412 4.19957 24.2666 4.32493 24.2666 4.47957L24.2666 7.27957Z" fill="#1E1E1E"/>
<path fill-rule="evenodd" clip-rule="evenodd" d="M13.3469 19.599C13.1923 19.599 13.0669 19.4737 13.0669 19.319L13.0669 9.79904C13.0669 9.6444 13.1923 9.51904 13.3469 9.51904L13.9069 9.51904C14.0615 9.51904 14.1869 9.6444 14.1869 9.79904L14.1869 19.319C14.1869 19.4737 14.0615 19.599 13.9069 19.599L13.3469 19.599Z" fill="#787878"/>
<path fill-rule="evenodd" clip-rule="evenodd" d="M8.9027 19.5757C8.74863 19.5889 8.60773 19.4753 8.588 19.3219L7.37167 9.86804C7.35193 9.71467 7.46084 9.57961 7.61491 9.56638L8.17083 9.51865C8.3249 9.50542 8.4658 9.61903 8.48553 9.7724L9.70186 19.2263C9.7216 19.3796 9.61269 19.5147 9.45862 19.5279L8.9027 19.5757Z" fill="#787878"/>
<path fill-rule="evenodd" clip-rule="evenodd" d="M18.3844 19.5757C18.5385 19.5889 18.6794 19.4753 18.6991 19.3219L19.9154 9.86804C19.9352 9.71467 19.8263 9.57961 19.6722 9.56638L19.1163 9.51865C18.9622 9.50542 18.8213 9.61903 18.8016 9.7724L17.5852 19.2263C17.5655 19.3796 17.6744 19.5147 17.8285 19.5279L18.3844 19.5757Z" fill="#787878"/>
</svg>
