<svg width="28" height="28" viewBox="0 0 28 28" fill="none" xmlns="http://www.w3.org/2000/svg">
<path fill-rule="evenodd" clip-rule="evenodd" d="M12.0489 11.4992L7.77832 3.93247L13.3565 2.33301L13.744 11.0128L13.7218 11.0192H15.501H15.9523H16.5615L16.5615 20.2891H15.2395H13.1552H12.0964L12.0964 11.4856L12.0489 11.4992ZM15.5538 25.373C15.8823 25.1769 16.131 24.9106 16.3017 24.5757C16.4723 24.2392 16.5568 23.8597 16.5568 23.4323C16.5568 23.0049 16.4723 22.6126 16.3017 22.2777C16.131 21.9429 15.8823 21.6797 15.5538 21.4884C15.2253 21.297 14.825 21.2013 14.353 21.2013C13.8809 21.2013 13.4536 21.3018 13.1171 21.5011C12.7806 21.7005 12.5255 21.9684 12.3532 22.3049C12.181 22.6413 12.0933 23.0161 12.0933 23.4291C12.0933 23.8421 12.1794 24.2424 12.3532 24.5789C12.5271 24.9137 12.7806 25.1801 13.1171 25.3746C13.4536 25.5692 13.865 25.6664 14.353 25.6664C14.8409 25.6664 15.2253 25.5692 15.5538 25.373Z" fill="#E9FF3F"/>
</svg>
