<svg width="24" height="25" viewBox="0 0 24 25" fill="none" xmlns="http://www.w3.org/2000/svg">
<path fill-rule="evenodd" clip-rule="evenodd" d="M10.3966 10.5489L6.88867 4.33338L11.4708 3.01953L11.7891 10.1494L11.7708 10.1546H13.2317H13.6024H14.1028V17.7692H13.0168H11.3048H10.435V10.5379L10.3966 10.5489ZM13.2756 21.9452C13.5455 21.7841 13.7498 21.5654 13.89 21.2903C14.0302 21.0139 14.0996 20.7021 14.0996 20.3511C14.0996 20 14.0302 19.6778 13.89 19.4027C13.7498 19.1276 13.5455 18.9115 13.2756 18.7543C13.0058 18.5971 12.677 18.5185 12.2893 18.5185C11.9015 18.5185 11.5505 18.601 11.2741 18.7648C10.9977 18.9285 10.7881 19.1486 10.6466 19.425C10.5052 19.7014 10.4331 20.0092 10.4331 20.3485C10.4331 20.6877 10.5039 21.0165 10.6466 21.2929C10.7894 21.568 10.9977 21.7867 11.2741 21.9466C11.5505 22.1064 11.8884 22.1863 12.2893 22.1863C12.6901 22.1863 13.0058 22.1064 13.2756 21.9452Z" fill="#3681FE"/>
</svg>
