<svg width="60" height="60" viewBox="0 0 60 60" fill="none" xmlns="http://www.w3.org/2000/svg">
<path d="M42.4993 30.8327C42.4993 37.276 37.276 42.4993 30.8327 42.4993C24.3894 42.4993 19.166 37.276 19.166 30.8327C19.166 24.3894 24.3894 19.166 30.8327 19.166C37.276 19.166 42.4993 24.3894 42.4993 30.8327Z" fill="#1E1E1E"/>
<path fill-rule="evenodd" clip-rule="evenodd" d="M32.5 8.33203V16.6654H27.5V8.33203H32.5Z" fill="black"/>
<path fill-rule="evenodd" clip-rule="evenodd" d="M53.333 33.332L44.9997 33.332L44.9997 28.332L53.333 28.332L53.333 33.332Z" fill="black"/>
<path fill-rule="evenodd" clip-rule="evenodd" d="M32.5 44.998V53.3314H27.5V44.998H32.5Z" fill="black"/>
<path fill-rule="evenodd" clip-rule="evenodd" d="M16.666 33.332L8.33268 33.332L8.33268 28.332L16.666 28.332L16.666 33.332Z" fill="black"/>
<path fill-rule="evenodd" clip-rule="evenodd" d="M48.5111 16.6918L42.6186 22.5843L39.083 19.0488L44.9756 13.1562L48.5111 16.6918Z" fill="black"/>
<path fill-rule="evenodd" clip-rule="evenodd" d="M22.5834 42.6156L16.6908 48.5082L13.1553 44.9726L19.0479 39.0801L22.5834 42.6156Z" fill="black"/>
<path fill-rule="evenodd" clip-rule="evenodd" d="M44.9733 48.5082L39.0807 42.6156L42.6162 39.0801L48.5088 44.9727L44.9733 48.5082Z" fill="black"/>
<path fill-rule="evenodd" clip-rule="evenodd" d="M19.0485 22.5844L13.1559 16.6918L16.6914 13.1563L22.584 19.0488L19.0485 22.5844Z" fill="black"/>
</svg>
