<svg width="65" height="21" viewBox="0 0 65 21" fill="none" xmlns="http://www.w3.org/2000/svg">
<g clip-path="url(#clip0_3862_58844)">
<path d="M5.60476 20.1032L0 0.883118H4.58691L7.38929 12.0926L8.39392 16.5606H8.48645L9.46464 12.0926L12.2802 0.883118H16.8672L11.2624 20.1032H5.60476Z" fill="white"/>
<path d="M28.2134 20.1032V0.883118H33.5802L39.1189 12.3041L40.5861 16.3226H40.6787L40.1235 11.392V0.883118H44.2081V20.1032H38.8016L33.2894 8.68219L31.9014 5.02059H31.7692L32.298 10.7311V20.1032H28.2134Z" fill="white"/>
<path d="M55.3795 20.4998C53.7761 20.4998 52.3167 20.1125 51.0041 19.3366C49.6915 18.5606 48.6472 17.4198 47.8713 15.9129C47.0953 14.406 46.708 12.5593 46.708 10.3742C46.708 8.18918 47.0808 6.46545 47.825 4.9942C48.5692 3.52295 49.5937 2.40596 50.8984 1.64324C52.2031 0.880517 53.7007 0.499817 55.3927 0.499817C57.0847 0.499817 58.5322 0.880517 59.8409 1.64324C61.1495 2.40596 62.1845 3.52295 62.9473 4.9942C63.71 6.46545 64.0907 8.25923 64.0907 10.3742C64.0907 12.4892 63.7113 14.406 62.9539 15.9129C62.1964 17.4198 61.1627 18.5606 59.8541 19.3366C58.5454 20.1125 57.0543 20.4998 55.3795 20.4998ZM55.3795 16.6532C56.2612 16.6532 57.0319 16.4284 57.6928 15.979C58.3537 15.5296 58.8719 14.8448 59.246 13.9235C59.6201 13.0021 59.8078 11.8323 59.8078 10.4139C59.8078 9.07483 59.6228 7.9552 59.2526 7.05633C58.8825 6.15745 58.3643 5.48065 57.6994 5.02725C57.0332 4.57384 56.2652 4.34648 55.3927 4.34648C54.5203 4.34648 53.8171 4.57384 53.1522 5.02725C52.4873 5.48065 51.9625 6.15745 51.5791 7.05633C51.1958 7.9552 51.0041 9.07483 51.0041 10.4139C51.0041 11.4806 51.1138 12.406 51.3346 13.1898C51.5553 13.9737 51.8633 14.6214 52.2599 15.133C52.6565 15.6446 53.1218 16.0253 53.6545 16.2764C54.1872 16.5276 54.7622 16.6532 55.3795 16.6532Z" fill="white"/>
<path d="M25.1384 7.89099H24.7101H22.7286H22.0254H21.4834V14.8731H22.4867H24.4616H25.7134V7.89099H25.1384Z" fill="white"/>
<path d="M24.7586 19.8247C25.0692 19.6397 25.3058 19.3872 25.4671 19.0686C25.6284 18.75 25.709 18.3892 25.709 17.986C25.709 17.5828 25.6284 17.2087 25.4671 16.8915C25.3058 16.5742 25.0692 16.3257 24.7586 16.1446C24.4479 15.9635 24.0686 15.8723 23.6204 15.8723C23.1723 15.8723 22.7678 15.9662 22.4493 16.1552C22.1307 16.3442 21.8888 16.598 21.7249 16.9166C21.561 17.2352 21.479 17.5908 21.479 17.982C21.479 18.3733 21.561 18.7527 21.7249 19.0713C21.8888 19.3898 22.1307 19.641 22.4493 19.8247C22.7678 20.0098 23.1578 20.101 23.6204 20.101C24.0831 20.101 24.4466 20.0085 24.7586 19.8221V19.8247Z" fill="#DFFF00"/>
<path d="M17.8652 2.15235L21.6511 8.26207L23.1527 7.86947L22.8091 0.859558L17.8652 2.15235Z" fill="white"/>
</g>
<defs>
<clipPath id="clip0_3862_58844">
<rect width="64.5473" height="20" fill="white" transform="translate(0 0.5)"/>
</clipPath>
</defs>
</svg>
