<svg width="60" height="60" viewBox="0 0 60 60" fill="none" xmlns="http://www.w3.org/2000/svg">
<path d="M43.75 28.75L32.5 16.25L10 37.5V50H21.25L43.75 28.75Z" fill="#1E1E1E"/>
<path fill-rule="evenodd" clip-rule="evenodd" d="M32.6161 13.3887L46.5428 28.8627L22.0452 51.9993H8V36.6372L32.6161 13.3887ZM12 38.3614V47.9993H20.4548L40.9572 28.636L32.3839 19.11L12 38.3614Z" fill="#1E1E1E"/>
<path d="M47.5 27.4993L33.75 12.4993L42.9167 6.66602L53.3333 18.3327L47.5 27.4993Z" fill="#1E1E1E"/>
<path fill-rule="evenodd" clip-rule="evenodd" d="M47.5 27.4993L53.3333 18.3327L42.9167 6.66602L33.75 12.4993L47.5 27.4993ZM46.925 20.9525L48.3336 18.7389L42.1966 11.8655L39.922 13.3129L46.925 20.9525Z" fill="#1E1E1E"/>
</svg>
