<svg width="60" height="60" viewBox="0 0 60 60" fill="none" xmlns="http://www.w3.org/2000/svg">
<path d="M37.8663 46.6675C37.8663 51.27 34.1352 55.001 29.5327 55.001C24.9303 55.001 21.1992 51.27 21.1992 46.6675C21.1992 42.065 24.9303 38.334 29.5327 38.334C34.1352 38.334 37.8663 42.065 37.8663 46.6675Z" fill="#BBBBBB"/>
<path d="M6.71725 39.5964C6.90274 38.8545 7.56938 38.334 8.33415 38.334H50.7316C51.4963 38.334 52.163 38.8545 52.3485 39.5964L54.0151 46.2631C54.2781 47.315 53.4825 48.334 52.3982 48.334H6.66749C5.5832 48.334 4.78761 47.315 5.05058 46.2631L6.71725 39.5964Z" fill="#1E1E1E"/>
<path d="M14.3331 11.4374C14.4476 10.6134 15.1521 10 15.9839 10H43.0816C43.9135 10 44.618 10.6134 44.7324 11.4374L48.4361 38.1041C48.5753 39.1061 47.7969 40 46.7853 40H12.2802C11.2686 40 10.4903 39.1061 10.6294 38.1041L14.3331 11.4374Z" fill="#1E1E1E"/>
<path d="M51.2003 13.3335C51.2003 17.936 47.4692 21.6671 42.8667 21.6671C38.2643 21.6671 34.5332 17.936 34.5332 13.3335C34.5332 8.73105 38.2643 5 42.8667 5C47.4692 5 51.2003 8.73105 51.2003 13.3335Z" fill="#BCDB00"/>
</svg>
