<svg width="28" height="29" viewBox="0 0 28 29" fill="none" xmlns="http://www.w3.org/2000/svg">
<path id="bottom" d="M18.0006 22.389C18.0006 24.5368 16.2595 26.278 14.1116 26.278C11.9638 26.278 10.2227 24.5368 10.2227 22.389C10.2227 20.2412 11.9638 18.5 14.1116 18.5C16.2595 18.5 18.0006 20.2412 18.0006 22.389Z" fill="#BBBBBB"/>
<path d="M3.80138 18.6438C3.88794 18.2976 4.19904 18.0547 4.55594 18.0547H24.3414C24.6983 18.0547 25.0094 18.2976 25.096 18.6438L25.8737 21.7549C25.9965 22.2458 25.6252 22.7214 25.1192 22.7214H3.77816C3.27216 22.7214 2.90088 22.2458 3.02361 21.7549L3.80138 18.6438Z" fill="#787878"/>
<path d="M7.35605 5.50476C7.40945 5.12024 7.73822 4.83398 8.12643 4.83398H20.772C21.1602 4.83398 21.489 5.12024 21.5424 5.50476L23.2708 17.9492C23.3357 18.4168 22.9725 18.834 22.5004 18.834H6.39803C5.92594 18.834 5.56271 18.4168 5.62765 17.9492L7.35605 5.50476Z" fill="#787878"/>
<path id="notify" d="M24.5602 6.38898C24.5602 8.5368 22.819 10.278 20.6712 10.278C18.5234 10.278 16.7822 8.5368 16.7822 6.38898C16.7822 4.24116 18.5234 2.5 20.6712 2.5C22.819 2.5 24.5602 4.24116 24.5602 6.38898Z" fill="#BCDB00"/>
</svg>
