<svg width="60" height="60" viewBox="0 0 60 60" fill="none" xmlns="http://www.w3.org/2000/svg">
<path d="M7.5 48.3333V14.1667C7.5 13.2462 8.24619 12.5 9.16667 12.5H19.108C19.6653 12.5 20.1857 12.7785 20.4948 13.2422L24.5052 19.2578C24.8143 19.7215 25.3347 20 25.892 20H45.8333C46.7538 20 47.5 20.7462 47.5 21.6667V48.3333C47.5 49.2538 46.7538 50 45.8333 50H9.16667C8.24619 50 7.5 49.2538 7.5 48.3333Z" fill="#787878"/>
<path d="M13.8436 25.4162L8.03713 47.9162C7.76489 48.9712 8.56143 49.9993 9.65093 49.9993H46.2479C46.9894 49.9993 47.6418 49.5095 47.8485 48.7974L54.3808 26.2974C54.6903 25.2311 53.8904 24.166 52.7802 24.166H15.4574C14.6973 24.166 14.0335 24.6803 13.8436 25.4162Z" fill="#1E1E1E"/>
</svg>
