
<svg width="60" height="60" viewBox="0 0 60 60" fill="none" xmlns="http://www.w3.org/2000/svg">
<path fill-rule="evenodd" clip-rule="evenodd" d="M25.0003 10.8346C17.1763 10.8346 10.8337 17.1773 10.8337 25.0013C10.8337 32.8253 17.1763 39.168 25.0003 39.168C32.8244 39.168 39.167 32.8253 39.167 25.0013C39.167 17.1773 32.8244 10.8346 25.0003 10.8346ZM6.66699 25.0013C6.66699 14.8761 14.8751 6.66797 25.0003 6.66797C35.1255 6.66797 43.3337 14.8761 43.3337 25.0013C43.3337 35.1265 35.1255 43.3346 25.0003 43.3346C14.8751 43.3346 6.66699 35.1265 6.66699 25.0013Z" fill="#1E1E1E"/>
<path fill-rule="evenodd" clip-rule="evenodd" d="M38.751 35.8047L51.6972 48.751L48.751 51.6972L35.8047 38.751L38.751 35.8047Z" fill="#1E1E1E"/>
</svg>
