<svg width="28" height="29" viewBox="0 0 28 29" fill="none" xmlns="http://www.w3.org/2000/svg">
<path fill-rule="evenodd" clip-rule="evenodd" d="M11.6386 6.08312C7.98735 6.08312 5.02745 9.04301 5.02745 12.6942C5.02745 16.3454 7.98735 19.3053 11.6386 19.3053C15.2898 19.3053 18.2497 16.3454 18.2497 12.6942C18.2497 9.04301 15.2898 6.08312 11.6386 6.08312ZM3.08301 12.6942C3.08301 7.96912 6.91346 4.13867 11.6386 4.13867C16.3637 4.13867 20.1941 7.96912 20.1941 12.6942C20.1941 17.4193 16.3637 21.2498 11.6386 21.2498C6.91346 21.2498 3.08301 17.4193 3.08301 12.6942Z" fill="#1E1E1E"/>
<path fill-rule="evenodd" clip-rule="evenodd" d="M18.0556 17.7363L24.0972 23.7779L22.7223 25.1529L16.6807 19.1113L18.0556 17.7363Z" fill="#1E1E1E"/>
</svg>
