<svg width="60" height="60" viewBox="0 0 60 60" fill="none" xmlns="http://www.w3.org/2000/svg">
<path fill-rule="evenodd" clip-rule="evenodd" d="M23.7503 9.58268C15.9263 9.58268 9.58366 15.9253 9.58366 23.7493C9.58366 31.5734 15.9263 37.916 23.7503 37.916C31.5744 37.916 37.917 31.5734 37.917 23.7493C37.917 15.9253 31.5744 9.58268 23.7503 9.58268ZM5.41699 23.7493C5.41699 13.6241 13.6251 5.41602 23.7503 5.41602C33.8755 5.41602 42.0837 13.6241 42.0837 23.7493C42.0837 33.8746 33.8755 42.0827 23.7503 42.0827C13.6251 42.0827 5.41699 33.8746 5.41699 23.7493Z" fill="#1E1E1E"/>
<path fill-rule="evenodd" clip-rule="evenodd" d="M37.5 34.5547L52.9463 50.001L50 52.9472L34.5537 37.501L37.5 34.5547Z" fill="#1E1E1E"/>
</svg>
