<svg width="156" height="156" viewBox="0 0 156 156" fill="none" xmlns="http://www.w3.org/2000/svg">
<path d="M85.7778 106.066L95.7029 97.6249L129.103 136.896L119.178 145.337L85.7778 106.066Z" fill="#E8E8E8"/>
<path fill-rule="evenodd" clip-rule="evenodd" d="M93.4718 109.028C109.279 95.584 111.194 71.8716 97.7501 56.0649C84.3062 40.2581 60.5938 38.3426 44.787 51.7865C28.9802 65.2305 27.0648 88.9428 40.5087 104.75C53.9526 120.556 77.665 122.472 93.4718 109.028ZM80.8888 105.51C94.6895 98.9625 100.569 82.4669 94.0216 68.6663C87.4739 54.8656 70.9784 48.9859 57.1777 55.5335C43.377 62.0811 37.4973 78.5767 44.0449 92.3774C50.5926 106.178 67.0881 112.058 80.8888 105.51Z" fill="#1E1E1E"/>
<path fill-rule="evenodd" clip-rule="evenodd" d="M116.889 18.6719L39.1111 18.6719L39.1111 56.0052L72.6114 56.0052L78 65.3385L83.3886 56.0052L116.889 56.0052V18.6719Z" fill="#DFFF00"/>
<path d="M62.4445 37.3377C62.4445 39.0559 61.0516 40.4488 59.3333 40.4488C57.6151 40.4488 56.2222 39.0559 56.2222 37.3377C56.2222 35.6195 57.6151 34.2266 59.3333 34.2266C61.0516 34.2266 62.4445 35.6195 62.4445 37.3377Z" fill="#1E1E1E"/>
<path d="M81.1111 37.3377C81.1111 39.0559 79.7182 40.4488 78 40.4488C76.2818 40.4488 74.8889 39.0559 74.8889 37.3377C74.8889 35.6195 76.2818 34.2266 78 34.2266C79.7182 34.2266 81.1111 35.6195 81.1111 37.3377Z" fill="#1E1E1E"/>
<path d="M99.7778 37.3377C99.7778 39.0559 98.3849 40.4488 96.6667 40.4488C94.9485 40.4488 93.5556 39.0559 93.5556 37.3377C93.5556 35.6195 94.9485 34.2266 96.6667 34.2266C98.3849 34.2266 99.7778 35.6195 99.7778 37.3377Z" fill="#1E1E1E"/>
</svg>
