<svg width="440" height="74" viewBox="0 0 440 74" fill="none" xmlns="http://www.w3.org/2000/svg">
<path d="M218.211 3.57771C218.948 2.10361 221.052 2.10361 221.789 3.57771L226 12H214L218.211 3.57771Z" fill="#1E1E1E" fill-opacity="0.9"/>
<rect x="0.5" y="12" width="439" height="62" rx="4" fill="#1E1E1E" fill-opacity="0.9"/>
<path d="M36.9454 29.5156V38H35.8789V30.6172H35.8321L33.7696 31.9883V30.9219L35.8789 29.5156H36.9454ZM40.9766 38.0703C40.5664 38.0645 40.2149 37.7246 40.2266 37.3086C40.2149 36.8984 40.5664 36.5586 40.9766 36.5586C41.3926 36.5586 41.7325 36.8984 41.7266 37.3086C41.7325 37.7246 41.3926 38.0645 40.9766 38.0703ZM52.5117 29.6211C52.5 32.627 51.416 35.4043 47.6484 37.25L47.1328 36.5117C49.0898 35.5742 50.2969 34.373 50.9531 32.9609L47.332 33.3125L47.1797 32.4922L51.2461 32.2227C51.4336 31.6426 51.5449 31.0273 51.5918 30.3828H47.707V29.6211H52.5117ZM54.6094 38.9492V28.5312H55.5352V38.9492H54.6094ZM65.918 28.543V38.9609H64.9805V36.3711H62.5781V35.668H64.9805V28.543H65.918ZM57.2461 34.0273C59.2324 34.0215 61.875 34.0156 64.1719 33.6875L64.2305 34.3789C63.1992 34.5547 62.127 34.6543 61.0898 34.7188V38.6328H60.1641V34.7656C59.168 34.8008 58.2129 34.8125 57.375 34.8125L57.2461 34.0273ZM58.043 31.1094C58.0371 29.8848 59.1152 29.0586 60.6797 29.0586C62.2266 29.0586 63.3105 29.8848 63.3047 31.1094C63.3105 32.3457 62.2266 33.1426 60.6797 33.1484C59.1152 33.1426 58.0371 32.3457 58.043 31.1094ZM58.9102 31.1094C58.9043 31.9004 59.6309 32.4395 60.6797 32.4336C61.7051 32.4395 62.4316 31.9004 62.4375 31.1094C62.4316 30.3242 61.7051 29.7793 60.6797 29.7734C59.6309 29.7793 58.9043 30.3242 58.9102 31.1094ZM76.0781 33.5469V34.3086H68.8828V29.5039H75.9727V30.2656H69.7969V33.5469H76.0781ZM67.6641 37.5312V36.7578H77.2031V37.5312H67.6641ZM86.4258 29.2109C86.4199 31.8242 84.5508 33.6992 81.5508 34.5547L81.1641 33.8281C83.6543 33.125 85.248 31.7422 85.4473 29.9727H81.7031V29.2109H86.4258ZM82.9219 38.8086V34.9297H89.6836V38.8086H82.9219ZM83.8125 38.0586H88.7695V35.668H83.8125V38.0586ZM86.4492 32V31.2266H88.7578V28.543H89.6836V34.4844H88.7578V32H86.4492ZM94.5234 30.5703C94.5293 31.7598 95.3203 32.9551 96.6562 33.4766L96.1641 34.1914C95.1738 33.7871 94.459 33.0195 94.0898 32.0996C93.7031 33.1074 92.9531 33.998 91.9336 34.4492L91.4297 33.7344C92.8008 33.125 93.6387 31.7598 93.6445 30.5703V29.1758H94.5234V30.5703ZM93.2461 36.1719V35.4102H100.266V38.9492H99.3633V36.1719H93.2461ZM97.1367 34.7773V28.7305H98.0039V31.2617H99.3867V28.543H100.266V34.8359H99.3867V32.0352H98.0039V34.7773H97.1367ZM105.902 38.0703C105.492 38.0645 105.141 37.7246 105.152 37.3086C105.141 36.8984 105.492 36.5586 105.902 36.5586C106.318 36.5586 106.658 36.8984 106.652 37.3086C106.658 37.7246 106.318 38.0645 105.902 38.0703ZM105.152 32.5977C105.141 32.1875 105.492 31.8477 105.902 31.8477C106.318 31.8477 106.658 32.1875 106.652 32.5977C106.658 33.0137 106.318 33.3535 105.902 33.3594C105.492 33.3535 105.141 33.0137 105.152 32.5977ZM116.449 29.6211C116.438 32.627 115.354 35.4043 111.586 37.25L111.07 36.5117C113.027 35.5742 114.234 34.373 114.891 32.9609L111.27 33.3125L111.117 32.4922L115.184 32.2227C115.371 31.6426 115.482 31.0273 115.529 30.3828H111.645V29.6211H116.449ZM118.547 38.9492V28.5312H119.473V38.9492H118.547ZM129.855 28.543V38.9609H128.918V36.3711H126.516V35.668H128.918V28.543H129.855ZM121.184 34.0273C123.17 34.0215 125.812 34.0156 128.109 33.6875L128.168 34.3789C127.137 34.5547 126.064 34.6543 125.027 34.7188V38.6328H124.102V34.7656C123.105 34.8008 122.15 34.8125 121.312 34.8125L121.184 34.0273ZM121.98 31.1094C121.975 29.8848 123.053 29.0586 124.617 29.0586C126.164 29.0586 127.248 29.8848 127.242 31.1094C127.248 32.3457 126.164 33.1426 124.617 33.1484C123.053 33.1426 121.975 32.3457 121.98 31.1094ZM122.848 31.1094C122.842 31.9004 123.568 32.4395 124.617 32.4336C125.643 32.4395 126.369 31.9004 126.375 31.1094C126.369 30.3242 125.643 29.7793 124.617 29.7734C123.568 29.7793 122.842 30.3242 122.848 31.1094ZM140.016 33.5469V34.3086H132.82V29.5039H139.91V30.2656H133.734V33.5469H140.016ZM131.602 37.5312V36.7578H141.141V37.5312H131.602ZM151.5 33.3711V34.0977H141.961V33.3711H151.5ZM143.109 35.6211V34.9297H150.305V37.1445H144.047V38.1406H150.645V38.8086H143.121V36.5117H149.391V35.6211H143.109ZM143.168 29.5156V28.8477H150.27V31.0039H144.117V31.918H150.457V32.5859H143.203V30.3711H149.344V29.5156H143.168ZM160.734 29.2109C160.729 31.8242 158.859 33.6992 155.859 34.5547L155.473 33.8281C157.963 33.125 159.557 31.7422 159.756 29.9727H156.012V29.2109H160.734ZM157.23 38.8086V34.9297H163.992V38.8086H157.23ZM158.121 38.0586H163.078V35.668H158.121V38.0586ZM160.758 32V31.2266H163.066V28.543H163.992V34.4844H163.066V32H160.758ZM168.832 30.5703C168.838 31.7598 169.629 32.9551 170.965 33.4766L170.473 34.1914C169.482 33.7871 168.768 33.0195 168.398 32.0996C168.012 33.1074 167.262 33.998 166.242 34.4492L165.738 33.7344C167.109 33.125 167.947 31.7598 167.953 30.5703V29.1758H168.832V30.5703ZM167.555 36.1719V35.4102H174.574V38.9492H173.672V36.1719H167.555ZM171.445 34.7773V28.7305H172.312V31.2617H173.695V28.543H174.574V34.8359H173.695V32.0352H172.312V34.7773H171.445ZM184.16 28.5312V32.832H185.906V33.5938H184.16V38.9492H183.246V28.5312H184.16ZM176.039 30.9688V30.207H178.723V28.6602H179.637V30.207H182.238V30.9688H176.039ZM176.637 34.2266C176.631 32.8203 177.709 31.8359 179.191 31.8359C180.662 31.8359 181.734 32.8203 181.746 34.2266C181.734 35.6387 180.662 36.6172 179.191 36.6172C177.709 36.6172 176.631 35.6387 176.637 34.2266ZM177.516 34.2266C177.51 35.1758 178.219 35.8438 179.191 35.832C180.152 35.8438 180.855 35.1758 180.867 34.2266C180.855 33.2832 180.152 32.6035 179.191 32.6094C178.219 32.6035 177.51 33.2832 177.516 34.2266ZM191.742 29.4453V30.3711H194.18V28.543H195.105V36.1484H194.18V33.3711H191.742V34.3086H186.961V29.4453H191.742ZM187.875 33.5703H190.84V30.207H187.875V33.5703ZM188.367 38.7266V35.4688H189.293V37.9531H195.34V38.7266H188.367ZM191.742 32.6094H194.18V31.1445H191.742V32.6094ZM205.055 30.3359V31.0859H199.828V30.3359H201.996V28.8477H202.91V30.3359H205.055ZM200.203 34.1562C200.203 32.7734 201.146 31.7949 202.441 31.7891C203.754 31.7949 204.691 32.7734 204.703 34.1562C204.691 35.5566 203.754 36.541 202.441 36.5469C201.146 36.541 200.203 35.5566 200.203 34.1562ZM201.023 34.1562C201.023 35.082 201.615 35.7441 202.441 35.7383C203.273 35.7441 203.883 35.082 203.883 34.1562C203.883 33.2422 203.273 32.5742 202.441 32.5625C201.615 32.5742 201.023 33.2422 201.023 34.1562ZM205.594 38.4336V28.7891H206.461V32.9258H207.844V28.5312H208.723V38.9492H207.844V33.6875H206.461V38.4336H205.594ZM218.379 28.5312V31.25H219.938V32.0234H218.379V34.7539H217.453V28.5312H218.379ZM210.703 33.8984V29.3281H215.332V30.0898H211.605V33.1484C213.715 33.1367 214.928 33.0723 216.328 32.7852L216.422 33.5469C214.963 33.8398 213.715 33.8984 211.512 33.8984H210.703ZM211.57 36.9336C211.576 35.6855 212.9 34.959 215.027 34.9531C217.154 34.959 218.461 35.6855 218.461 36.9336C218.461 38.1992 217.154 38.9258 215.027 38.9258C212.9 38.9258 211.576 38.1992 211.57 36.9336ZM212.473 36.9336C212.479 37.707 213.457 38.1816 215.027 38.1875C216.586 38.1816 217.576 37.707 217.57 36.9336C217.576 36.166 216.586 35.7031 215.027 35.7148C213.457 35.7031 212.479 36.166 212.473 36.9336ZM229.195 29.6211C229.184 32.627 228.1 35.4043 224.332 37.25L223.816 36.5117C225.773 35.5742 226.98 34.373 227.637 32.9609L224.016 33.3125L223.863 32.4922L227.93 32.2227C228.117 31.6426 228.229 31.0273 228.275 30.3828H224.391V29.6211H229.195ZM231.293 38.9492V28.5312H232.219V38.9492H231.293ZM242.602 28.543V38.9609H241.664V36.3711H239.262V35.668H241.664V28.543H242.602ZM233.93 34.0273C235.916 34.0215 238.559 34.0156 240.855 33.6875L240.914 34.3789C239.883 34.5547 238.811 34.6543 237.773 34.7188V38.6328H236.848V34.7656C235.852 34.8008 234.896 34.8125 234.059 34.8125L233.93 34.0273ZM234.727 31.1094C234.721 29.8848 235.799 29.0586 237.363 29.0586C238.91 29.0586 239.994 29.8848 239.988 31.1094C239.994 32.3457 238.91 33.1426 237.363 33.1484C235.799 33.1426 234.721 32.3457 234.727 31.1094ZM235.594 31.1094C235.588 31.9004 236.314 32.4395 237.363 32.4336C238.389 32.4395 239.115 31.9004 239.121 31.1094C239.115 30.3242 238.389 29.7793 237.363 29.7734C236.314 29.7793 235.588 30.3242 235.594 31.1094ZM252.762 33.5469V34.3086H245.566V29.5039H252.656V30.2656H246.48V33.5469H252.762ZM244.348 37.5312V36.7578H253.887V37.5312H244.348ZM262.781 28.5312V32.7734H264.469V33.5469H262.781V38.9492H261.867V28.5312H262.781ZM254.789 36.2422C257.479 34.9062 258.943 32.8965 259.154 30.4297H255.27V29.6562H260.086C260.08 32.6035 258.697 35.293 255.305 36.9688L254.789 36.2422ZM276.738 28.543V36.2188H275.812V32.1992H273.633C273.428 33.4824 272.35 34.3555 270.973 34.3555C269.414 34.3555 268.26 33.2832 268.266 31.7773C268.26 30.2656 269.414 29.2168 270.973 29.2109C272.379 29.2168 273.475 30.1133 273.645 31.4375H275.812V28.543H276.738ZM269.145 31.7773C269.145 32.8145 269.924 33.5469 270.973 33.5586C271.998 33.5469 272.777 32.8145 272.777 31.7773C272.777 30.7461 271.998 30.0254 270.973 30.0195C269.924 30.0254 269.145 30.7461 269.145 31.7773ZM270.047 38.7266V35.4336H270.973V37.9531H277.031V38.7266H270.047ZM280.629 34.4961V35.8789H285.844V34.4961H286.758V38.8086H279.715V34.4961H280.629ZM278.473 33.5586V32.7969H285.568C285.85 31.502 285.85 30.5703 285.844 29.7734H279.68V29.0117H286.758V29.7734C286.758 30.5703 286.758 31.4961 286.471 32.7969H288.012V33.5586H278.473ZM280.629 38.0586H285.844V36.6055H280.629V38.0586ZM297.914 31.9531V32.7031H295.805V34.1562C296.777 34.1152 297.75 34.0449 298.652 33.9453L298.723 34.625C296.479 34.9355 294 35 292.043 35L291.902 34.25C292.816 34.2441 293.842 34.2324 294.891 34.1973V32.7031H292.852V29.2109H297.832V29.9727H293.777V31.9531H297.914ZM293.684 38.7266V35.7969H294.598V37.9531H300.785V38.7266H293.684ZM299.52 36.3359V28.543H300.445V36.3359H299.52ZM308.109 29.1641C308.988 29.1582 309.732 29.4922 310.219 30.043H312.949V28.5312H313.875V34.707H312.949V33.2188H310.219C309.738 33.7695 308.988 34.1035 308.109 34.0977C306.551 34.1035 305.396 33.084 305.402 31.6367C305.396 30.1777 306.551 29.1582 308.109 29.1641ZM306.281 31.6367C306.281 32.6035 307.043 33.3184 308.109 33.3125C309.141 33.3184 309.914 32.6035 309.914 31.6367C309.914 30.6465 309.141 29.9551 308.109 29.9609C307.043 29.9551 306.281 30.6465 306.281 31.6367ZM306.926 36.9336C306.92 35.6797 308.256 34.9531 310.418 34.9531C312.574 34.9531 313.91 35.6797 313.91 36.9336C313.91 38.1992 312.574 38.9258 310.418 38.9258C308.256 38.9258 306.92 38.1992 306.926 36.9336ZM307.828 36.9336C307.822 37.7188 308.818 38.1934 310.418 38.1875C312.018 38.1934 313.014 37.7188 313.008 36.9336C313.014 36.1426 312.018 35.6738 310.418 35.668C308.818 35.6738 307.822 36.1426 307.828 36.9336ZM310.658 30.793C310.752 31.0508 310.805 31.332 310.805 31.6367C310.805 31.9297 310.752 32.2051 310.664 32.457H312.949V30.793H310.658ZM319.09 30.2188C319.09 31.6367 320.168 32.9375 321.68 33.4531L321.176 34.1797C320.027 33.7578 319.119 32.8965 318.662 31.8066C318.217 33.043 317.285 33.998 316.066 34.4727L315.574 33.7344C317.133 33.1543 318.182 31.7598 318.188 30.1484V29.0703H319.09V30.2188ZM316.957 37.0273C316.963 35.8379 318.27 35.1406 320.414 35.1406C322.553 35.1406 323.848 35.8379 323.848 37.0273C323.848 38.2402 322.553 38.9258 320.414 38.9258C318.27 38.9258 316.963 38.2402 316.957 37.0273ZM317.883 37.0273C317.871 37.7656 318.844 38.1934 320.414 38.1992C321.99 38.1934 322.951 37.7656 322.957 37.0273C322.951 36.3184 321.99 35.8789 320.414 35.8789C318.844 35.8789 317.871 36.3184 317.883 37.0273ZM322.84 34.8711V28.5312H323.754V31.25H325.324V32.0234H323.754V34.8711H322.84ZM335.484 32.9141V33.6523H325.98V32.9141H335.484ZM327.129 35.3047V34.5898H334.254V37.0039H328.066V38.082H334.57V38.832H327.152V36.3125H333.352V35.3047H327.129ZM327.246 32.0586V28.8945H334.242V29.6328H328.172V31.3086H334.348V32.0586H327.246ZM341.098 28.7188C343.412 28.7188 344.771 29.3574 344.777 30.5117C344.771 31.6953 343.412 32.334 341.098 32.3398C338.771 32.334 337.406 31.6953 337.406 30.5117C337.406 29.3574 338.771 28.7188 341.098 28.7188ZM336.352 33.793V33.043H345.844V33.793H336.352ZM337.5 35.3984V34.6953H344.625V37.0273H338.438V38.1055H344.941V38.832H337.523V36.3477H343.723V35.3984H337.5ZM338.367 30.5117C338.355 31.2383 339.369 31.6367 341.098 31.6367C342.826 31.6367 343.834 31.2383 343.84 30.5117C343.834 29.8262 342.826 29.416 341.098 29.4102C339.369 29.416 338.355 29.8262 338.367 30.5117ZM353.285 30.7109C353.291 31.959 354.334 33.1016 355.875 33.5586L355.441 34.2617C354.24 33.8984 353.309 33.125 352.846 32.1348C352.395 33.2246 351.428 34.0684 350.191 34.4727L349.734 33.7461C351.287 33.2773 352.377 32.082 352.383 30.7109V30.5117H350.027V29.75H352.383V28.4844H353.309V29.75H355.641V30.5117H353.285V30.7109ZM350.789 38.1992C352.465 37.9297 353.988 37.0156 354.141 35.9023H351.199V35.1523H358.066V35.9023H355.113C355.26 36.9922 356.795 37.9297 358.465 38.1992L358.125 38.9141C356.602 38.6621 355.219 37.9062 354.621 36.8633C354.029 37.9004 352.652 38.6445 351.141 38.9023L350.789 38.1992ZM356.965 34.5898V28.5312H357.879V31.1094H359.449V31.8828H357.879V34.5898H356.965ZM362.895 29.3398C364.43 29.3457 365.52 30.7578 365.531 32.9727C365.52 35.1934 364.43 36.5996 362.895 36.5938C361.348 36.5996 360.264 35.1934 360.27 32.9727C360.264 30.7578 361.348 29.3457 362.895 29.3398ZM361.137 32.9727C361.143 34.666 361.863 35.7793 362.895 35.7734C363.938 35.7793 364.641 34.666 364.641 32.9727C364.641 31.2793 363.938 30.166 362.895 30.1602C361.863 30.166 361.143 31.2793 361.137 32.9727ZM367.254 38.9492V28.5312H368.168V32.6914H369.914V33.4883H368.168V38.9492H367.254ZM378.891 33.5469V34.3086H371.695V29.5039H378.785V30.2656H372.609V33.5469H378.891ZM370.477 37.5312V36.7578H380.016V37.5312H370.477ZM389.473 28.5312V38.9727H388.559V34.5312H386.391V33.7578H388.559V31.6836H386.473V30.9102H388.559V28.5312H389.473ZM381.211 30.2422V29.4805H385.793V33.1836H382.16V35.75C383.725 35.75 385.02 35.6914 386.602 35.4453L386.684 36.2188C385.02 36.4766 383.684 36.5352 382.02 36.5352H381.246V32.4336H384.891V30.2422H381.211ZM400.758 36.8398V37.6133H391.219V36.8398H393.586V34.0332C392.695 33.5703 392.156 32.8203 392.156 31.8711C392.156 30.2598 393.738 29.1992 395.965 29.1875C398.191 29.1992 399.773 30.2598 399.773 31.8711C399.773 32.8027 399.252 33.541 398.391 34.0039V36.8398H400.758ZM393.047 31.8711C393.041 33.0371 394.254 33.8164 395.965 33.8164C397.658 33.8164 398.883 33.0371 398.883 31.8711C398.883 30.7051 397.658 29.9375 395.965 29.9492C394.254 29.9375 393.041 30.7051 393.047 31.8711ZM394.488 36.8398H397.465V34.3613C397.014 34.4785 396.51 34.543 395.965 34.543C395.432 34.543 394.934 34.4844 394.488 34.3672V36.8398ZM403.277 29.5156L403.195 35.6094H402.211L402.129 29.5156H403.277ZM401.953 37.3086C401.941 36.8984 402.293 36.5586 402.703 36.5586C403.119 36.5586 403.459 36.8984 403.453 37.3086C403.459 37.7246 403.119 38.0645 402.703 38.0703C402.293 38.0645 401.941 37.7246 401.953 37.3086ZM33.125 57L33.1133 56.2266L36.0079 53.1797C37.0098 52.1133 37.4903 51.5391 37.4961 50.7539C37.4903 49.8809 36.7637 49.3184 35.8086 49.3125C34.795 49.3184 34.1621 49.957 34.1563 50.9062H33.1602C33.1485 49.4062 34.3086 48.3984 35.8438 48.3984C37.3848 48.3984 38.4746 49.4355 38.4805 50.7539C38.4746 51.7031 38.0352 52.4414 36.5352 53.9883L34.5899 55.9922V56.0625H38.6329V57H33.125ZM40.9766 57.0703C40.5664 57.0645 40.2149 56.7246 40.2266 56.3086C40.2149 55.8984 40.5664 55.5586 40.9766 55.5586C41.3926 55.5586 41.7325 55.8984 41.7266 56.3086C41.7325 56.7246 41.3926 57.0645 40.9766 57.0703ZM52.125 49.3359V50.0859H46.8984V49.3359H49.0664V47.8477H49.9805V49.3359H52.125ZM47.2734 53.1562C47.2734 51.7734 48.2168 50.7949 49.5117 50.7891C50.8242 50.7949 51.7617 51.7734 51.7734 53.1562C51.7617 54.5566 50.8242 55.541 49.5117 55.5469C48.2168 55.541 47.2734 54.5566 47.2734 53.1562ZM48.0938 53.1562C48.0938 54.082 48.6855 54.7441 49.5117 54.7383C50.3438 54.7441 50.9531 54.082 50.9531 53.1562C50.9531 52.2422 50.3438 51.5742 49.5117 51.5625C48.6855 51.5742 48.0938 52.2422 48.0938 53.1562ZM52.6641 57.4336V47.7891H53.5312V51.9258H54.9141V47.5312H55.793V57.9492H54.9141V52.6875H53.5312V57.4336H52.6641ZM60.9961 50.332C60.9902 52.2363 62.2852 54.1465 63.8203 54.8438L63.2578 55.5703C62.0684 54.9961 61.043 53.7598 60.5449 52.2773C60.0645 53.8477 59.0391 55.166 57.8203 55.7812L57.2344 55.0078C58.7871 54.2988 60.0703 52.3066 60.082 50.332V48.4336H60.9961V50.332ZM64.957 57.9727V47.5312H65.8828V57.9727H64.957ZM72.2109 48.7383V49.4883H68.9648V51.4922H72.0586V52.2305H68.9648V54.5859C70.5117 54.5801 71.4727 54.5332 72.6094 54.3281L72.6914 55.0898C71.4668 55.3242 70.4648 55.377 68.7539 55.3711H68.0859V48.7383H72.2109ZM73.3828 57.4219V47.7539H74.2734V51.7266H75.7031V47.5312H76.5938V57.9492H75.7031V52.4883H74.2734V57.4219H73.3828ZM86.25 48.6445V49.6875C86.25 51 86.25 52.4824 85.8633 54.75L84.9258 54.6562C85.3477 52.5234 85.3477 50.9648 85.3477 49.6875V49.4062H79.0664V48.6445H86.25ZM78.0352 56.4141V55.6523H87.5273V56.4141H78.0352ZM96.7969 48.2109C96.791 50.8242 94.9219 52.6992 91.9219 53.5547L91.5352 52.8281C94.0254 52.125 95.6191 50.7422 95.8184 48.9727H92.0742V48.2109H96.7969ZM93.293 57.8086V53.9297H100.055V57.8086H93.293ZM94.1836 57.0586H99.1406V54.668H94.1836V57.0586ZM96.8203 51V50.2266H99.1289V47.543H100.055V53.4844H99.1289V51H96.8203ZM104.895 49.5703C104.9 50.7598 105.691 51.9551 107.027 52.4766L106.535 53.1914C105.545 52.7871 104.83 52.0195 104.461 51.0996C104.074 52.1074 103.324 52.998 102.305 53.4492L101.801 52.7344C103.172 52.125 104.01 50.7598 104.016 49.5703V48.1758H104.895V49.5703ZM103.617 55.1719V54.4102H110.637V57.9492H109.734V55.1719H103.617ZM107.508 53.7773V47.7305H108.375V50.2617H109.758V47.543H110.637V53.8359H109.758V51.0352H108.375V53.7773H107.508ZM116.273 57.0703C115.863 57.0645 115.512 56.7246 115.523 56.3086C115.512 55.8984 115.863 55.5586 116.273 55.5586C116.689 55.5586 117.029 55.8984 117.023 56.3086C117.029 56.7246 116.689 57.0645 116.273 57.0703ZM115.523 51.5977C115.512 51.1875 115.863 50.8477 116.273 50.8477C116.689 50.8477 117.029 51.1875 117.023 51.5977C117.029 52.0137 116.689 52.3535 116.273 52.3594C115.863 52.3535 115.512 52.0137 115.523 51.5977ZM124.77 57L125.156 54.6562H123.023L122.637 57H121.781L122.168 54.6562H120.914L121.055 53.8125H122.303L122.654 51.7031H121.418L121.547 50.8594H122.789L123.176 48.5156H124.031L123.645 50.8594H125.777L126.164 48.5156H127.02L126.633 50.8594H127.898L127.758 51.7031H126.498L126.146 53.8125H127.395L127.254 54.6562H126.012L125.625 57H124.77ZM123.158 53.8125H125.291L125.643 51.7031H123.51L123.158 53.8125ZM133.172 47.7188C135.486 47.7188 136.846 48.3574 136.852 49.5117C136.846 50.6953 135.486 51.334 133.172 51.3398C130.846 51.334 129.48 50.6953 129.48 49.5117C129.48 48.3574 130.846 47.7188 133.172 47.7188ZM128.426 52.793V52.043H137.918V52.793H128.426ZM129.574 54.3984V53.6953H136.699V56.0273H130.512V57.1055H137.016V57.832H129.598V55.3477H135.797V54.3984H129.574ZM130.441 49.5117C130.43 50.2383 131.443 50.6367 133.172 50.6367C134.9 50.6367 135.908 50.2383 135.914 49.5117C135.908 48.8262 134.9 48.416 133.172 48.4102C131.443 48.416 130.43 48.8262 130.441 49.5117ZM149.953 47.5312V50.3086H151.523V51.0938H149.953V53.8125H149.039V47.5312H149.953ZM141.832 49.4062V48.6445H144.48V47.4492H145.395V48.6445H148.043V49.4062H141.832ZM142.43 51.7734C142.424 50.6602 143.426 49.9219 144.938 49.9219C146.432 49.9219 147.434 50.6602 147.445 51.7734C147.434 52.9043 146.432 53.6367 144.938 53.6367C143.426 53.6367 142.424 52.9043 142.43 51.7734ZM143.309 51.7734C143.303 52.4824 143.953 52.9219 144.938 52.9336C145.91 52.9219 146.566 52.4824 146.578 51.7734C146.566 51.0938 145.91 50.6367 144.938 50.6367C143.953 50.6367 143.303 51.0938 143.309 51.7734ZM143.379 57.8086V54.4102H149.953V57.8086H143.379ZM144.281 57.0586H149.039V55.1484H144.281V57.0586ZM154.77 48.7969C154.758 50.9824 154.453 53.4434 152.93 55.4648L152.203 55.043C153.504 53.4141 153.891 51.4746 153.967 49.5586H152.414V48.7969H154.77ZM154.547 55.7227C155.982 53.8828 156.234 51.5039 156.275 49.5586H155.098V48.7969H157.078C157.078 49.6465 157.055 50.625 156.926 51.6328H158.309V47.8125H159.188V57.4219H158.309V52.3945H156.803C156.562 53.6953 156.111 55.0137 155.262 56.1562L154.547 55.7227ZM160.254 57.9492V47.5312H161.145V57.9492H160.254ZM170.941 48.2109C170.936 50.8242 169.066 52.6992 166.066 53.5547L165.68 52.8281C168.17 52.125 169.764 50.7422 169.963 48.9727H166.219V48.2109H170.941ZM167.438 57.8086V53.9297H174.199V57.8086H167.438ZM168.328 57.0586H173.285V54.668H168.328V57.0586ZM170.965 51V50.2266H173.273V47.543H174.199V53.4844H173.273V51H170.965ZM179.039 49.5703C179.045 50.7598 179.836 51.9551 181.172 52.4766L180.68 53.1914C179.689 52.7871 178.975 52.0195 178.605 51.0996C178.219 52.1074 177.469 52.998 176.449 53.4492L175.945 52.7344C177.316 52.125 178.154 50.7598 178.16 49.5703V48.1758H179.039V49.5703ZM177.762 55.1719V54.4102H184.781V57.9492H183.879V55.1719H177.762ZM181.652 53.7773V47.7305H182.52V50.2617H183.902V47.543H184.781V53.8359H183.902V51.0352H182.52V53.7773H181.652ZM194.367 47.5312V51.832H196.113V52.5938H194.367V57.9492H193.453V47.5312H194.367ZM186.246 49.9688V49.207H188.93V47.6602H189.844V49.207H192.445V49.9688H186.246ZM186.844 53.2266C186.838 51.8203 187.916 50.8359 189.398 50.8359C190.869 50.8359 191.941 51.8203 191.953 53.2266C191.941 54.6387 190.869 55.6172 189.398 55.6172C187.916 55.6172 186.838 54.6387 186.844 53.2266ZM187.723 53.2266C187.717 54.1758 188.426 54.8438 189.398 54.832C190.359 54.8438 191.062 54.1758 191.074 53.2266C191.062 52.2832 190.359 51.6035 189.398 51.6094C188.426 51.6035 187.717 52.2832 187.723 53.2266ZM201.949 48.4453V49.3711H204.387V47.543H205.312V55.1484H204.387V52.3711H201.949V53.3086H197.168V48.4453H201.949ZM198.082 52.5703H201.047V49.207H198.082V52.5703ZM198.574 57.7266V54.4688H199.5V56.9531H205.547V57.7266H198.574ZM201.949 51.6094H204.387V50.1445H201.949V51.6094ZM215.262 49.3359V50.0859H210.035V49.3359H212.203V47.8477H213.117V49.3359H215.262ZM210.41 53.1562C210.41 51.7734 211.354 50.7949 212.648 50.7891C213.961 50.7949 214.898 51.7734 214.91 53.1562C214.898 54.5566 213.961 55.541 212.648 55.5469C211.354 55.541 210.41 54.5566 210.41 53.1562ZM211.23 53.1562C211.23 54.082 211.822 54.7441 212.648 54.7383C213.48 54.7441 214.09 54.082 214.09 53.1562C214.09 52.2422 213.48 51.5742 212.648 51.5625C211.822 51.5742 211.23 52.2422 211.23 53.1562ZM215.801 57.4336V47.7891H216.668V51.9258H218.051V47.5312H218.93V57.9492H218.051V52.6875H216.668V57.4336H215.801ZM228.586 47.5312V50.25H230.145V51.0234H228.586V53.7539H227.66V47.5312H228.586ZM220.91 52.8984V48.3281H225.539V49.0898H221.812V52.1484C223.922 52.1367 225.135 52.0723 226.535 51.7852L226.629 52.5469C225.17 52.8398 223.922 52.8984 221.719 52.8984H220.91ZM221.777 55.9336C221.783 54.6855 223.107 53.959 225.234 53.9531C227.361 53.959 228.668 54.6855 228.668 55.9336C228.668 57.1992 227.361 57.9258 225.234 57.9258C223.107 57.9258 221.783 57.1992 221.777 55.9336ZM222.68 55.9336C222.686 56.707 223.664 57.1816 225.234 57.1875C226.793 57.1816 227.783 56.707 227.777 55.9336C227.783 55.166 226.793 54.7031 225.234 54.7148C223.664 54.7031 222.686 55.166 222.68 55.9336ZM239.016 49.3359V50.0859H233.789V49.3359H235.957V47.8477H236.871V49.3359H239.016ZM234.164 53.1562C234.164 51.7734 235.107 50.7949 236.402 50.7891C237.715 50.7949 238.652 51.7734 238.664 53.1562C238.652 54.5566 237.715 55.541 236.402 55.5469C235.107 55.541 234.164 54.5566 234.164 53.1562ZM234.984 53.1562C234.984 54.082 235.576 54.7441 236.402 54.7383C237.234 54.7441 237.844 54.082 237.844 53.1562C237.844 52.2422 237.234 51.5742 236.402 51.5625C235.576 51.5742 234.984 52.2422 234.984 53.1562ZM239.555 57.4336V47.7891H240.422V51.9258H241.805V47.5312H242.684V57.9492H241.805V52.6875H240.422V57.4336H239.555ZM247.887 50.332C247.881 52.2363 249.176 54.1465 250.711 54.8438L250.148 55.5703C248.959 54.9961 247.934 53.7598 247.436 52.2773C246.955 53.8477 245.93 55.166 244.711 55.7812L244.125 55.0078C245.678 54.2988 246.961 52.3066 246.973 50.332V48.4336H247.887V50.332ZM251.848 57.9727V47.5312H252.773V57.9727H251.848ZM259.102 48.7383V49.4883H255.855V51.4922H258.949V52.2305H255.855V54.5859C257.402 54.5801 258.363 54.5332 259.5 54.3281L259.582 55.0898C258.357 55.3242 257.355 55.377 255.645 55.3711H254.977V48.7383H259.102ZM260.273 57.4219V47.7539H261.164V51.7266H262.594V47.5312H263.484V57.9492H262.594V52.4883H261.164V57.4219H260.273ZM273.141 48.6445V49.6875C273.141 51 273.141 52.4824 272.754 54.75L271.816 54.6562C272.238 52.5234 272.238 50.9648 272.238 49.6875V49.4062H265.957V48.6445H273.141ZM264.926 56.4141V55.6523H274.418V56.4141H264.926ZM283.359 47.5312V51.7734H285.047V52.5469H283.359V57.9492H282.445V47.5312H283.359ZM275.367 55.2422C278.057 53.9062 279.521 51.8965 279.732 49.4297H275.848V48.6562H280.664C280.658 51.6035 279.275 54.293 275.883 55.9688L275.367 55.2422ZM292.207 54.5273C292.201 55.4473 292.699 56.4258 293.689 56.9883C294.686 56.373 295.213 55.3301 295.207 54.5273V53.9531H296.109V54.5273C296.104 55.5996 296.895 56.666 298.23 57.1289L297.773 57.8086C296.73 57.4395 296.004 56.7129 295.641 55.8398C295.318 56.6836 294.68 57.4863 293.719 57.8906C292.705 57.5039 292.061 56.7422 291.75 55.8691C291.375 56.707 290.66 57.4336 289.664 57.8086L289.195 57.1289C290.514 56.6367 291.305 55.5234 291.316 54.5273V53.9531H292.207V54.5273ZM288.926 50.5898C288.92 49.1367 290.074 48.1465 291.656 48.1523C293.238 48.1465 294.381 49.1367 294.387 50.5898C294.381 52.0195 293.238 53.0039 291.656 53.0039C290.074 53.0039 288.92 52.0195 288.926 50.5898ZM289.828 50.5898C289.816 51.5566 290.584 52.2363 291.656 52.2422C292.717 52.2363 293.484 51.5566 293.484 50.5898C293.484 49.6172 292.717 48.9258 291.656 48.9375C290.584 48.9258 289.816 49.6172 289.828 50.5898ZM296.367 53.4961V47.543H297.281V53.4961H296.367ZM307.477 50.6953V51.4336H300.34V47.918H301.254V50.6953H307.477ZM299.039 53.6016V52.8516H308.578V53.6016H299.039ZM300.281 57.6914V54.668H301.195V56.9297H307.535V57.6914H300.281ZM315.305 48.1641C316.184 48.1582 316.928 48.4922 317.414 49.043H320.145V47.5312H321.07V53.707H320.145V52.2188H317.414C316.934 52.7695 316.184 53.1035 315.305 53.0977C313.746 53.1035 312.592 52.084 312.598 50.6367C312.592 49.1777 313.746 48.1582 315.305 48.1641ZM313.477 50.6367C313.477 51.6035 314.238 52.3184 315.305 52.3125C316.336 52.3184 317.109 51.6035 317.109 50.6367C317.109 49.6465 316.336 48.9551 315.305 48.9609C314.238 48.9551 313.477 49.6465 313.477 50.6367ZM314.121 55.9336C314.115 54.6797 315.451 53.9531 317.613 53.9531C319.77 53.9531 321.105 54.6797 321.105 55.9336C321.105 57.1992 319.77 57.9258 317.613 57.9258C315.451 57.9258 314.115 57.1992 314.121 55.9336ZM315.023 55.9336C315.018 56.7188 316.014 57.1934 317.613 57.1875C319.213 57.1934 320.209 56.7188 320.203 55.9336C320.209 55.1426 319.213 54.6738 317.613 54.668C316.014 54.6738 315.018 55.1426 315.023 55.9336ZM317.854 49.793C317.947 50.0508 318 50.332 318 50.6367C318 50.9297 317.947 51.2051 317.859 51.457H320.145V49.793H317.854ZM326.285 49.2188C326.285 50.6367 327.363 51.9375 328.875 52.4531L328.371 53.1797C327.223 52.7578 326.314 51.8965 325.857 50.8066C325.412 52.043 324.48 52.998 323.262 53.4727L322.77 52.7344C324.328 52.1543 325.377 50.7598 325.383 49.1484V48.0703H326.285V49.2188ZM324.152 56.0273C324.158 54.8379 325.465 54.1406 327.609 54.1406C329.748 54.1406 331.043 54.8379 331.043 56.0273C331.043 57.2402 329.748 57.9258 327.609 57.9258C325.465 57.9258 324.158 57.2402 324.152 56.0273ZM325.078 56.0273C325.066 56.7656 326.039 57.1934 327.609 57.1992C329.186 57.1934 330.146 56.7656 330.152 56.0273C330.146 55.3184 329.186 54.8789 327.609 54.8789C326.039 54.8789 325.066 55.3184 325.078 56.0273ZM330.035 53.8711V47.5312H330.949V50.25H332.52V51.0234H330.949V53.8711H330.035ZM342.68 51.9141V52.6523H333.176V51.9141H342.68ZM334.324 54.3047V53.5898H341.449V56.0039H335.262V57.082H341.766V57.832H334.348V55.3125H340.547V54.3047H334.324ZM334.441 51.0586V47.8945H341.438V48.6328H335.367V50.3086H341.543V51.0586H334.441ZM348.293 47.7188C350.607 47.7188 351.967 48.3574 351.973 49.5117C351.967 50.6953 350.607 51.334 348.293 51.3398C345.967 51.334 344.602 50.6953 344.602 49.5117C344.602 48.3574 345.967 47.7188 348.293 47.7188ZM343.547 52.793V52.043H353.039V52.793H343.547ZM344.695 54.3984V53.6953H351.82V56.0273H345.633V57.1055H352.137V57.832H344.719V55.3477H350.918V54.3984H344.695ZM345.562 49.5117C345.551 50.2383 346.564 50.6367 348.293 50.6367C350.021 50.6367 351.029 50.2383 351.035 49.5117C351.029 48.8262 350.021 48.416 348.293 48.4102C346.564 48.416 345.551 48.8262 345.562 49.5117ZM360.48 49.7109C360.486 50.959 361.529 52.1016 363.07 52.5586L362.637 53.2617C361.436 52.8984 360.504 52.125 360.041 51.1348C359.59 52.2246 358.623 53.0684 357.387 53.4727L356.93 52.7461C358.482 52.2773 359.572 51.082 359.578 49.7109V49.5117H357.223V48.75H359.578V47.4844H360.504V48.75H362.836V49.5117H360.48V49.7109ZM357.984 57.1992C359.66 56.9297 361.184 56.0156 361.336 54.9023H358.395V54.1523H365.262V54.9023H362.309C362.455 55.9922 363.99 56.9297 365.66 57.1992L365.32 57.9141C363.797 57.6621 362.414 56.9062 361.816 55.8633C361.225 56.9004 359.848 57.6445 358.336 57.9023L357.984 57.1992ZM364.16 53.5898V47.5312H365.074V50.1094H366.645V50.8828H365.074V53.5898H364.16ZM370.09 48.3398C371.625 48.3457 372.715 49.7578 372.727 51.9727C372.715 54.1934 371.625 55.5996 370.09 55.5938C368.543 55.5996 367.459 54.1934 367.465 51.9727C367.459 49.7578 368.543 48.3457 370.09 48.3398ZM368.332 51.9727C368.338 53.666 369.059 54.7793 370.09 54.7734C371.133 54.7793 371.836 53.666 371.836 51.9727C371.836 50.2793 371.133 49.166 370.09 49.1602C369.059 49.166 368.338 50.2793 368.332 51.9727ZM374.449 57.9492V47.5312H375.363V51.6914H377.109V52.4883H375.363V57.9492H374.449ZM386.086 52.5469V53.3086H378.891V48.5039H385.98V49.2656H379.805V52.5469H386.086ZM377.672 56.5312V55.7578H387.211V56.5312H377.672ZM396.668 47.5312V57.9727H395.754V53.5312H393.586V52.7578H395.754V50.6836H393.668V49.9102H395.754V47.5312H396.668ZM388.406 49.2422V48.4805H392.988V52.1836H389.355V54.75C390.92 54.75 392.215 54.6914 393.797 54.4453L393.879 55.2188C392.215 55.4766 390.879 55.5352 389.215 55.5352H388.441V51.4336H392.086V49.2422H388.406ZM407.953 55.8398V56.6133H398.414V55.8398H400.781V53.0332C399.891 52.5703 399.352 51.8203 399.352 50.8711C399.352 49.2598 400.934 48.1992 403.16 48.1875C405.387 48.1992 406.969 49.2598 406.969 50.8711C406.969 51.8027 406.447 52.541 405.586 53.0039V55.8398H407.953ZM400.242 50.8711C400.236 52.0371 401.449 52.8164 403.16 52.8164C404.854 52.8164 406.078 52.0371 406.078 50.8711C406.078 49.7051 404.854 48.9375 403.16 48.9492C401.449 48.9375 400.236 49.7051 400.242 50.8711ZM401.684 55.8398H404.66V53.3613C404.209 53.4785 403.705 53.543 403.16 53.543C402.627 53.543 402.129 53.4844 401.684 53.3672V55.8398ZM410.473 48.5156L410.391 54.6094H409.406L409.324 48.5156H410.473ZM409.148 56.3086C409.137 55.8984 409.488 55.5586 409.898 55.5586C410.314 55.5586 410.654 55.8984 410.648 56.3086C410.654 56.7246 410.314 57.0645 409.898 57.0703C409.488 57.0645 409.137 56.7246 409.148 56.3086Z" fill="#E9FF3F"/>
</svg>
