<svg width="60" height="60" viewBox="0 0 60 60" fill="none" xmlns="http://www.w3.org/2000/svg">
<g clip-path="url(#clip0_855_90319)">
<path fill-rule="evenodd" clip-rule="evenodd" d="M44.7593 21.6709C43.1237 17.953 41.2752 15.8697 37.7469 13.9959C34.1897 12.1066 30.0996 11.4712 26.1368 12.192C22.174 12.9129 18.5697 14.948 15.9056 17.9689C13.2415 20.9898 11.673 24.8203 11.4533 28.8421L11.3397 30.9223L7.17919 30.6951L7.29283 28.6148C7.56364 23.6577 9.49687 18.9364 12.7805 15.213C16.0642 11.4895 20.5067 8.98113 25.3911 8.09264C30.2754 7.20415 35.3167 7.98739 39.7013 10.316C44.1148 12.6599 46.5877 15.4799 48.5732 19.993L49.4121 21.9L45.5982 23.5778L44.7593 21.6709Z" fill="#1E1E1E"/>
<path fill-rule="evenodd" clip-rule="evenodd" d="M15.2414 36.6621C16.8817 40.3908 18.9038 42.699 22.4224 44.5677C25.9796 46.4569 30.0697 47.0924 34.0325 46.3715C37.9953 45.6507 41.5996 43.6156 44.2637 40.5947C46.9278 37.5738 48.4963 33.7433 48.716 29.7215L48.8296 27.6412L52.9901 27.8685L52.8765 29.9488C52.6057 34.9059 50.6724 39.6272 47.3888 43.3506C44.1051 47.0741 39.6626 49.5825 34.7782 50.4709C29.8939 51.3594 24.8526 50.5762 20.468 48.2476C16.0448 45.8985 13.4082 42.8423 11.4275 38.3399L10.5885 36.433L14.4024 34.7551L15.2414 36.6621Z" fill="#1E1E1E"/>
<path fill-rule="evenodd" clip-rule="evenodd" d="M51.525 10.6023L50.0516 22.7896L47.5272 24.5723L35.2716 21.8225L36.1838 17.757L46.1915 20.0024L47.3885 10.1022L51.525 10.6023Z" fill="#1E1E1E"/>
<path fill-rule="evenodd" clip-rule="evenodd" d="M8.6449 47.9602L10.1184 35.7729L12.6427 33.9902L24.8983 36.74L23.9861 40.8055L13.9784 38.5601L12.7814 48.4603L8.6449 47.9602Z" fill="#1E1E1E"/>
</g>
<defs>
<clipPath id="clip0_855_90319">
<rect width="60" height="60" fill="white"/>
</clipPath>
</defs>
</svg>
