<svg width="206" height="96" viewBox="0 0 206 96" fill="none" xmlns="http://www.w3.org/2000/svg">
<rect width="205.633" height="95.339" rx="4.4631" fill="white"/>
<rect width="175.879" height="76.1117" transform="translate(14.877 14.8789)" fill="white"/>
<circle cx="17.1912" cy="21.822" r="2.3142" fill="#E9FF3F"/>
<path d="M26.1911 19.1744C26.6962 19.171 27.1267 19.3608 27.4114 19.6761H28.9301V18.8218H29.5742V22.4084H28.9301V21.588H27.4081C27.1233 21.8999 26.6928 22.0863 26.1911 22.083C25.2758 22.0863 24.5944 21.4795 24.5978 20.6321C24.5944 19.7744 25.2758 19.171 26.1911 19.1744ZM25.2148 20.6321C25.2114 21.1643 25.6216 21.5406 26.1911 21.5338C26.7436 21.5406 27.1538 21.1643 27.1538 20.6321C27.1538 20.0863 26.7436 19.7236 26.1911 19.7303C25.6216 19.7236 25.2114 20.0863 25.2148 20.6321ZM25.486 23.7169C25.4826 22.9745 26.269 22.5406 27.5403 22.544C28.8047 22.5406 29.5912 22.9745 29.5946 23.7169C29.5912 24.4559 28.8047 24.8864 27.5403 24.883C26.269 24.8864 25.4826 24.4559 25.486 23.7169ZM26.1165 23.7169C26.1131 24.1339 26.6487 24.3779 27.5403 24.3746C28.4318 24.3779 28.964 24.1339 28.964 23.7169C28.964 23.283 28.4318 23.0423 27.5403 23.0389C26.6487 23.0423 26.1131 23.283 26.1165 23.7169ZM27.7064 20.1914C27.747 20.327 27.7708 20.4761 27.7708 20.6321C27.7708 20.7812 27.747 20.927 27.7064 21.0592H28.9301V20.1914H27.7064ZM32.6048 19.7914C32.6014 20.588 33.1642 21.3304 34.0693 21.6287L33.7235 22.1372C33.0591 21.9033 32.5608 21.4287 32.2963 20.8287C32.0319 21.5101 31.5167 22.0457 30.8082 22.3067L30.4624 21.7914C31.4116 21.4558 31.9607 20.6456 31.9675 19.7371V19.1405H32.6048V19.7914ZM31.2828 23.7576C31.2828 23.0457 32.0591 22.6287 33.3235 22.6321C34.571 22.6287 35.3371 23.0457 35.3371 23.7576C35.3371 24.4762 34.571 24.8864 33.3235 24.883C32.0591 24.8864 31.2828 24.4762 31.2828 23.7576ZM31.9268 23.7576C31.9235 24.1576 32.4455 24.3746 33.3235 24.3813C34.1947 24.3746 34.71 24.1576 34.7066 23.7576C34.71 23.3711 34.1947 23.1406 33.3235 23.1406C32.4455 23.1406 31.9235 23.3711 31.9268 23.7576ZM34.6388 22.4897V18.8218H35.2829V20.3473H36.1643V20.8897H35.2829V22.4897H34.6388ZM43.2696 18.8286V23.3169H42.6255V21.7372H41.2966V22.3067H38.4965V19.2286H39.1406V20.2592H40.6593V19.2286H41.2966V19.9066H42.6255V18.8286H43.2696ZM39.1406 21.7846H40.6593V20.7541H39.1406V21.7846ZM39.3033 24.7678V22.8762H39.9542V24.2457H43.4052V24.7678H39.3033ZM41.2966 21.2151H42.6255V20.4354H41.2966V21.2151ZM48.985 18.8218V20.9033H49.8528V21.4389H48.985V23.5677H48.3409V18.8218H48.985ZM44.1645 22.388C44.6323 22.388 45.1781 22.388 45.751 22.3677V21.944C45.0595 21.8626 44.6188 21.5304 44.6256 21.0321C44.6188 20.4422 45.1985 20.0897 46.0697 20.0964C46.9409 20.0897 47.5104 20.4422 47.5138 21.0321C47.5104 21.5304 47.0799 21.8626 46.3951 21.9406V22.3372C46.9375 22.3067 47.4867 22.2558 47.9952 22.1779L48.0494 22.6321C46.7544 22.8762 45.2934 22.8931 44.2323 22.9033L44.1645 22.388ZM44.3205 19.8592V19.3846H45.751V18.8015H46.3951V19.3846H47.8257V19.8592H44.3205ZM45.0595 24.7678V23.2491H45.7036V24.2457H49.202V24.7678H45.0595ZM45.2357 21.0321C45.2357 21.327 45.551 21.5134 46.0697 21.5134C46.5815 21.5134 46.9002 21.327 46.8968 21.0321C46.9002 20.7168 46.5815 20.5338 46.0697 20.5371C45.551 20.5338 45.2357 20.7168 45.2357 21.0321Z" fill="#787878"/>
<path d="M54.7622 18.9258V24.7113" stroke="#BBBBBB" stroke-width="0.57855"/>
<path d="M61.626 19.4117V24.3203H61.009V20.049H60.9819L59.7886 20.8422V20.2253L61.009 19.4117H61.626ZM64.5413 24.3881C63.4531 24.3881 62.8226 23.4728 62.826 21.866C62.8226 20.2727 63.4599 19.3439 64.5413 19.3439C65.6193 19.3439 66.2566 20.2727 66.2566 21.866C66.2566 23.4728 65.6295 24.3881 64.5413 24.3881ZM63.4158 21.866C63.4192 23.1372 63.8294 23.8457 64.5413 23.8457C65.2498 23.8457 65.6634 23.1372 65.66 21.866C65.6634 20.5948 65.2464 19.8761 64.5413 19.8727C63.8362 19.8761 63.4192 20.5948 63.4158 21.866ZM72.3653 22.0355V22.4694H69.911V23.6491H69.3821V22.4694H66.8465V22.0355H72.3653ZM67.5516 24.7407V23.0932H68.0804V24.2932H71.7483V24.7407H67.5516ZM67.5855 21.4456V19.0388H68.1143V19.8117H71.0974V19.0388H71.6263V21.4456H67.5855ZM68.1143 21.0117H71.0974V20.2185H68.1143V21.0117ZM79.5926 18.849V23.2694H79.057V20.9575H77.8163V20.5168H79.057V18.849H79.5926ZM74.623 22.0626C75.5111 21.7507 76.1552 20.9541 76.1552 20.0897V19.7778H74.7925V19.3371H78.04V19.7778H76.6908V20.0897C76.6908 20.8694 77.2943 21.6253 78.1756 21.927L77.8977 22.3541C77.2197 22.1067 76.6942 21.6016 76.4332 20.9778C76.1722 21.6762 75.6162 22.2287 74.901 22.4965L74.623 22.0626ZM75.7213 24.7407V22.8694H76.2569V24.2932H79.7621V24.7407H75.7213Z" fill="#BBBBBB"/>
<path d="M20.061 63.2495V46.4021C20.061 46.2232 20.2061 46.0781 20.385 46.0781H25.6577C25.7665 46.0781 25.8681 46.1328 25.9281 46.2237L28.0444 49.4316C28.1044 49.5225 28.206 49.5772 28.3149 49.5772H38.2043C38.3833 49.5772 38.5283 49.7222 38.5283 49.9012V63.2495C38.5283 63.4284 38.3833 63.5735 38.2043 63.5735H20.385C20.2061 63.5735 20.061 63.4284 20.061 63.2495Z" fill="#1E1E1E"/>
<path d="M23.0902 52.1532L20.1652 63.4928C20.1123 63.6979 20.2672 63.8977 20.4789 63.8977H38.37C38.5142 63.8977 38.641 63.8025 38.6812 63.664L41.9717 52.3244C42.0319 52.1172 41.8764 51.9102 41.6606 51.9102H23.4039C23.2561 51.9102 23.1271 52.0101 23.0902 52.1532Z" fill="#E8E8E8"/>
<path fill-rule="evenodd" clip-rule="evenodd" d="M39.176 39.5938H22.9766V47.3695H29.9539L31.0763 49.3134L32.1986 47.3695H39.176V39.5938Z" fill="#DFFF00"/>
<path d="M27.836 43.48C27.836 43.8379 27.5459 44.128 27.188 44.128C26.8301 44.128 26.54 43.8379 26.54 43.48C26.54 43.1221 26.8301 42.832 27.188 42.832C27.5459 42.832 27.836 43.1221 27.836 43.48Z" fill="#1E1E1E"/>
<path d="M31.7237 43.48C31.7237 43.8379 31.4336 44.128 31.0757 44.128C30.7178 44.128 30.4277 43.8379 30.4277 43.48C30.4277 43.1221 30.7178 42.832 31.0757 42.832C31.4336 42.832 31.7237 43.1221 31.7237 43.48Z" fill="#1E1E1E"/>
<path d="M35.6119 43.48C35.6119 43.8379 35.3218 44.128 34.9639 44.128C34.606 44.128 34.3159 43.8379 34.3159 43.48C34.3159 43.1221 34.606 42.832 34.9639 42.832C35.3218 42.832 35.6119 43.1221 35.6119 43.48Z" fill="#1E1E1E"/>
<path d="M55.1494 48.5512V39.882H57.6444V40.8854H56.433V47.5477H57.6444V48.5512H55.1494ZM58.3404 46.707L58.3314 45.7217L60.6817 43.5612C61.2919 42.9781 61.6219 42.6165 61.6219 42.0967C61.6219 41.5136 61.1835 41.1521 60.5823 41.1566C59.9676 41.1521 59.5653 41.5408 59.5698 42.169H58.2771C58.2726 40.8899 59.2218 40.0718 60.6004 40.0718C62.0016 40.0718 62.9327 40.8718 62.9327 42.0063C62.9327 42.7521 62.5711 43.3623 61.2241 44.5827L60.2298 45.5499V45.5861H63.0231V46.707H58.3404ZM66.5305 46.7974C64.8898 46.7974 63.8999 45.5771 63.8999 43.4346C63.8999 41.2967 64.8988 40.0718 66.5305 40.0718C68.1622 40.0718 69.1611 41.2967 69.1611 43.4346C69.1611 45.5861 68.1667 46.7974 66.5305 46.7974ZM65.2921 43.4346C65.283 44.9443 65.7712 45.6765 66.5305 45.6765C67.2899 45.6765 67.7735 44.9443 67.769 43.4346C67.7735 41.9385 67.2853 41.1882 66.5305 41.1837C65.7757 41.1882 65.2921 41.9385 65.2921 43.4346ZM70.1013 46.707L70.0922 45.7217L72.4426 43.5612C73.0528 42.9781 73.3827 42.6165 73.3827 42.0967C73.3827 41.5136 72.9443 41.1521 72.3431 41.1566C71.7284 41.1521 71.3262 41.5408 71.3307 42.169H70.038C70.0335 40.8899 70.9826 40.0718 72.3612 40.0718C73.7624 40.0718 74.6935 40.8718 74.6935 42.0063C74.6935 42.7521 74.3319 43.3623 72.985 44.5827L71.9906 45.5499V45.5861H74.7839V46.707H70.1013ZM78.1738 46.7974C76.7365 46.7974 75.706 46.0064 75.6788 44.8629H77.0529C77.0755 45.3511 77.5501 45.672 78.1829 45.6765C78.8337 45.672 79.2993 45.3104 79.2948 44.7815C79.2993 44.2482 78.8247 43.873 78.0563 43.8685H77.4506V42.8651H78.0563C78.7027 42.8651 79.1547 42.5125 79.1501 41.9973C79.1547 41.4956 78.7705 41.1521 78.1919 41.1566C77.6134 41.1521 77.1388 41.4775 77.1162 41.9792H75.8144C75.837 40.8537 76.8495 40.0718 78.1919 40.0718C79.5569 40.0718 80.4654 40.8809 80.4609 41.9159C80.4654 42.6481 79.9547 43.1679 79.2224 43.299V43.3533C80.1852 43.4708 80.714 44.0538 80.705 44.8719C80.714 45.9929 79.6518 46.7974 78.1738 46.7974ZM90.1697 39.4752V40.0085C90.1697 40.5871 90.1697 41.36 89.9979 42.3679L88.8408 42.2956C88.8906 42.0244 88.9267 41.7758 88.9493 41.5453L84.2848 41.7442L84.1582 40.8583L89.0126 40.7588L89.0262 40.3611H84.3842V39.4752H90.1697ZM83.5435 43.5973V42.7024H86.3368V41.925H87.4939V42.7024H91.0104V43.5973H83.5435ZM84.3932 44.881V44.0222H90.1155V46.1285H85.5323V46.5443H90.3324V47.4121H84.4023V45.3239H88.9764V44.881H84.3932ZM98.2332 43.1182V44.0403H92.4116V39.9995H98.1699V40.9306H93.5506V43.1182H98.2332ZM91.5257 46.5353V45.5861H99.0559V46.5353H91.5257ZM102.093 41.8165C102.093 43.064 102.541 44.316 103.711 44.9443L103.079 45.785C102.337 45.4053 101.845 44.7409 101.555 43.9408C101.271 44.8132 100.778 45.5499 100.032 45.9838L99.3722 45.116C100.561 44.429 100.999 43.0866 101.008 41.8165V41.6266H99.6796V40.7046H101.008V39.5927H102.084V40.7046H103.386V41.6266H102.093V41.8165ZM102.907 43.3713V42.4312H103.874V39.448H104.959V47.159H103.874V43.3713H102.907ZM105.546 47.5387V39.3124H106.64V47.5387H105.546ZM114.415 39.3215V45.2335H113.257V39.3215H114.415ZM107.653 41.9159C107.653 40.7091 108.638 39.8413 109.904 39.8458C111.165 39.8413 112.15 40.7091 112.155 41.9159C112.15 43.1408 111.165 44.0041 109.904 44.0041C108.638 44.0041 107.653 43.1408 107.653 41.9159ZM108.783 41.9159C108.774 42.6029 109.257 43.0007 109.904 43.0007C110.527 43.0007 111.011 42.6029 111.016 41.9159C111.011 41.247 110.527 40.8447 109.904 40.8492C109.257 40.8447 108.774 41.247 108.783 41.9159ZM108.9 47.3941V44.6369H110.066V46.472H114.631V47.3941H108.9ZM124.367 43.5612V44.4742H118.546V39.9181H124.304V40.8492H119.721V41.717H124.114V42.621H119.721V43.5612H124.367ZM117.66 46.5805V45.6403H125.19V46.5805H117.66ZM128.896 39.9272V42.5397H127.116V43.4346C127.997 43.4256 128.657 43.3849 129.43 43.2448L129.538 44.1488C128.598 44.3341 127.784 44.3476 126.564 44.3476H125.995V41.708H127.784V40.8221H125.986V39.9272H128.896ZM127.152 47.3941V44.881H128.309V46.472H132.937V47.3941H127.152ZM129.204 42.3137V41.3735H129.963V39.4571H131.048V45.3059H129.963V42.3137H129.204ZM131.635 45.5047V39.3215H132.729V45.5047H131.635ZM140.368 43.1182V44.0403H134.546V39.9995H140.305V40.9306H135.685V43.1182H140.368ZM133.66 46.5353V45.5861H141.191V46.5353H133.66ZM150.691 39.3124V47.5568H149.543V39.3124H150.691ZM144.228 40.9306V39.9995H148.142V43.1725H145.43V44.6821C146.687 44.6731 147.749 44.6098 148.956 44.4109L149.055 45.342C147.704 45.5816 146.479 45.6313 144.978 45.6313H144.237V42.2594H146.967V40.9306H144.228ZM159.324 45.6584V46.6257H151.794V45.6584H154.958V44.1759H152.418V43.2719H153.521V40.9215H152.382V39.9995H158.692V40.9215H157.535V43.2719H158.655V44.1759H156.106V45.6584H159.324ZM154.678 43.2719H156.396V40.9215H154.678V43.2719ZM166.502 43.5612V44.4742H160.68V39.9181H166.439V40.8492H161.856V41.717H166.249V42.621H161.856V43.5612H166.502ZM159.795 46.5805V45.6403H167.325V46.5805H159.795ZM170.226 48.5512H167.731V47.5477H168.943V40.8854H167.731V39.882H170.226V48.5512Z" fill="#1E1E1E"/>
<path d="M56.7585 54.8458C57.4319 54.8413 58.006 55.0944 58.3856 55.5147H60.4106V54.3757H61.2693V59.1578H60.4106V58.064H58.3811C58.0014 58.4798 57.4274 58.7284 56.7585 58.7239C55.5381 58.7284 54.6296 57.9193 54.6341 56.7894C54.6296 55.6458 55.5381 54.8413 56.7585 54.8458ZM55.4567 56.7894C55.4522 57.499 55.9991 58.0007 56.7585 57.9917C57.4952 58.0007 58.0421 57.499 58.0421 56.7894C58.0421 56.0617 57.4952 55.578 56.7585 55.5871C55.9991 55.578 55.4522 56.0617 55.4567 56.7894ZM55.8183 60.9025C55.8138 59.9126 56.8624 59.3341 58.5574 59.3386C60.2433 59.3341 61.2919 59.9126 61.2965 60.9025C61.2919 61.8878 60.2433 62.4619 58.5574 62.4573C56.8624 62.4619 55.8138 61.8878 55.8183 60.9025ZM56.659 60.9025C56.6545 61.4584 57.3686 61.7839 58.5574 61.7793C59.7461 61.7839 60.4557 61.4584 60.4557 60.9025C60.4557 60.3239 59.7461 60.003 58.5574 59.9985C57.3686 60.003 56.6545 60.3239 56.659 60.9025ZM58.7789 56.2018C58.8331 56.3826 58.8647 56.5814 58.8647 56.7894C58.8647 56.9882 58.8331 57.1826 58.7789 57.3589H60.4106V56.2018H58.7789ZM65.3101 55.6684C65.3056 56.7306 66.0559 57.7205 67.2627 58.1182L66.8017 58.7962C65.9158 58.4843 65.2514 57.8515 64.8988 57.0515C64.5463 57.96 63.8592 58.6742 62.9146 59.0222L62.4536 58.3352C63.7191 57.8877 64.4514 56.8074 64.4604 55.5961V54.8006H65.3101V55.6684ZM63.5474 60.9567C63.5474 60.0075 64.5824 59.4516 66.2684 59.4561C67.9317 59.4516 68.9532 60.0075 68.9532 60.9567C68.9532 61.9149 67.9317 62.4619 66.2684 62.4573C64.5824 62.4619 63.5474 61.9149 63.5474 60.9567ZM64.4062 60.9567C64.4016 61.4901 65.0977 61.7793 66.2684 61.7884C67.43 61.7793 68.117 61.4901 68.1125 60.9567C68.117 60.4415 67.43 60.1341 66.2684 60.1341C65.0977 60.1341 64.4016 60.4415 64.4062 60.9567ZM68.0221 59.2663V54.3757H68.8809V56.4097H70.0561V57.1329H68.8809V59.2663H68.0221ZM77.2246 54.3757V62.4935H76.3659V54.3757H77.2246ZM70.7973 57.8199C70.7973 56.0888 71.6697 54.9859 72.8946 54.9814C74.0969 54.9859 74.9828 56.0888 74.9828 57.8199C74.9828 59.5691 74.0969 60.672 72.8946 60.6675C71.6697 60.672 70.7973 59.5691 70.7973 57.8199ZM71.629 57.8199C71.6245 59.1081 72.1397 59.8991 72.8946 59.8991C73.6358 59.8991 74.1511 59.1081 74.1511 57.8199C74.1511 56.5498 73.6358 55.7543 72.8946 55.7498C72.1397 55.7543 71.6245 56.5498 71.629 57.8199ZM87.5301 54.3848V60.3691H86.6713V58.2629H84.8995V59.0222H81.166V54.9181H82.0248V56.2922H84.0497V54.9181H84.8995V55.8221H86.6713V54.3848H87.5301ZM82.0248 58.3261H84.0497V56.9521H82.0248V58.3261ZM82.2418 62.3037V59.7815H83.1096V61.6076H87.7109V62.3037H82.2418ZM84.8995 57.5668H86.6713V56.5272H84.8995V57.5668ZM95.1506 54.3757V57.151H96.3077V57.8651H95.1506V60.7036H94.2919V54.3757H95.1506ZM88.7233 59.1307C89.3471 59.1307 90.0748 59.1307 90.8386 59.1036V58.5386C89.9166 58.4301 89.329 57.9871 89.338 57.3227C89.329 56.5362 90.1019 56.0662 91.2635 56.0752C92.4251 56.0662 93.1845 56.5362 93.189 57.3227C93.1845 57.9871 92.6104 58.4301 91.6974 58.534V59.0629C92.4206 59.0222 93.1528 58.9544 93.8308 58.8504L93.9031 59.4561C92.1765 59.7815 90.2285 59.8041 88.8137 59.8177L88.7233 59.1307ZM88.9312 55.7588V55.126H90.8386V54.3486H91.6974V55.126H93.6048V55.7588H88.9312ZM89.9166 62.3037V60.2787H90.7754V61.6076H95.4399V62.3037H89.9166ZM90.1516 57.3227C90.1516 57.7159 90.572 57.9645 91.2635 57.9645C91.946 57.9645 92.3709 57.7159 92.3664 57.3227C92.3709 56.9024 91.946 56.6583 91.2635 56.6628C90.572 56.6583 90.1516 56.9024 90.1516 57.3227ZM103.865 57.8018V58.5069H102.157V60.0075C102.907 59.9759 103.662 59.9262 104.371 59.8448L104.435 60.4776C102.649 60.7443 100.733 60.7714 99.1914 60.7759L99.083 60.0618C99.7655 60.0618 100.52 60.0573 101.298 60.0392V58.5069H99.6706V55.126H103.829V55.8221H100.52V57.8018H103.865ZM104.878 62.4935V54.3757H105.736V62.4935H104.878ZM113.592 55.1531V55.9487C113.587 56.9476 113.587 58.0685 113.285 59.7273L112.417 59.6369C112.729 58.0685 112.729 56.9204 112.733 55.9487V55.8492H107.815V55.1531H113.592ZM107.038 61.3816V60.6675H109.849V57.8109H110.699V60.6675H114.424V61.3816H107.038ZM120.11 59.7273C120.11 60.4234 120.453 61.1601 121.19 61.5986C121.931 61.124 122.297 60.3511 122.297 59.7273V59.3386H123.138V59.7273C123.133 60.568 123.689 61.3816 124.747 61.7251L124.322 62.3579C123.522 62.0822 122.975 61.5398 122.695 60.8799C122.437 61.5308 121.954 62.1229 121.212 62.4302C120.435 62.1364 119.942 61.5624 119.694 60.9025C119.4 61.5398 118.867 62.0777 118.103 62.3579L117.669 61.7251C118.708 61.3545 119.273 60.5093 119.278 59.7273V59.3386H120.11V59.7273ZM117.461 56.7442C117.465 55.6097 118.379 54.8322 119.621 54.8277C120.86 54.8322 121.773 55.6097 121.773 56.7442C121.773 57.8651 120.86 58.6425 119.621 58.6425C118.379 58.6425 117.465 57.8651 117.461 56.7442ZM118.302 56.7442C118.297 57.4493 118.853 57.9284 119.621 57.9284C120.381 57.9284 120.932 57.4493 120.932 56.7442C120.932 56.0345 120.381 55.5554 119.621 55.5599C118.853 55.5554 118.297 56.0345 118.302 56.7442ZM123.156 58.9951V54.3848H124.015V58.9951H123.156ZM131.852 56.7442V57.4312H126.275V54.665H127.125V56.7442H131.852ZM125.289 59.1397V58.4527H132.702V59.1397H125.289ZM126.212 62.2856V59.9081H127.07V61.5805H131.907V62.2856H126.212ZM142.944 58.1273V58.8233H139.672V59.6007C141.154 59.6821 142.036 60.1793 142.04 61.029C142.036 61.9466 140.987 62.4619 139.247 62.4573C137.484 62.4619 136.436 61.9466 136.436 61.029C136.436 60.1793 137.317 59.6776 138.822 59.6007V58.8233H135.559V58.1273H142.944ZM135.947 57.0244C137.403 56.8752 138.551 56.2153 138.668 55.4334H136.237V54.7464H142.284V55.4334H139.826C139.943 56.2199 141.082 56.8752 142.565 57.0244L142.257 57.7024C140.852 57.5397 139.69 56.9476 139.251 56.0888C138.804 56.9476 137.651 57.5397 136.246 57.7024L135.947 57.0244ZM137.303 61.029C137.299 61.5217 138.009 61.8065 139.247 61.7974C140.467 61.8065 141.181 61.5217 141.181 61.029C141.181 60.5273 140.467 60.2561 139.247 60.2516C138.009 60.2561 137.299 60.5273 137.303 61.029ZM150.267 54.3757V62.4935H149.408V54.3757H150.267ZM143.839 57.8199C143.839 56.0888 144.712 54.9859 145.936 54.9814C147.139 54.9859 148.025 56.0888 148.025 57.8199C148.025 59.5691 147.139 60.672 145.936 60.6675C144.712 60.672 143.839 59.5691 143.839 57.8199ZM144.671 57.8199C144.666 59.1081 145.182 59.8991 145.936 59.8991C146.678 59.8991 147.193 59.1081 147.193 57.8199C147.193 56.5498 146.678 55.7543 145.936 55.7498C145.182 55.7543 144.666 56.5498 144.671 57.8199ZM158.529 54.3757V62.4754H157.706V54.3757H158.529ZM151.65 57.8741C151.65 56.1204 152.337 55.0221 153.394 55.0266C154.38 55.0221 155.044 55.9577 155.144 57.4764H156.061V54.5294H156.884V62.0777H156.061V58.1725H155.148C155.071 59.7544 154.398 60.7352 153.394 60.7307C152.337 60.7352 151.65 59.6324 151.65 57.8741ZM152.445 57.8741C152.445 59.1623 152.811 59.9217 153.394 59.9171C153.991 59.9217 154.362 59.1623 154.362 57.8741C154.362 56.5814 153.991 55.8266 153.394 55.8311C152.811 55.8266 152.445 56.5814 152.445 57.8741ZM166.972 60.7488V61.463H159.559V60.7488H161.331V58.6335C160.667 58.2674 160.26 57.6888 160.265 56.9611C160.26 55.6865 161.512 54.8503 163.248 54.8458C164.988 54.8503 166.24 55.6865 166.24 56.9611C166.24 57.6753 165.851 58.2493 165.2 58.6154V60.7488H166.972ZM161.096 56.9611C161.096 57.8289 161.978 58.3939 163.248 58.3985C164.509 58.3939 165.404 57.8289 165.408 56.9611C165.404 56.0888 164.509 55.5328 163.248 55.5328C161.978 55.5328 161.096 56.0888 161.096 56.9611ZM162.181 60.7488H164.333V58.9499C164.003 59.0267 163.636 59.0674 163.248 59.0674C162.868 59.0674 162.506 59.0267 162.181 58.9499V60.7488ZM169.051 55.1622L168.97 59.8177H168.075L167.994 55.1622H169.051ZM167.885 61.1285C167.881 60.7759 168.174 60.4867 168.527 60.4867C168.875 60.4867 169.164 60.7759 169.169 61.1285C169.164 61.481 168.875 61.7658 168.527 61.7703C168.174 61.7658 167.881 61.481 167.885 61.1285Z" fill="#787878"/>
<g clip-path="url(#clip0_2394_118764)">
<rect x="14.877" y="75.0469" width="175.879" height="4.6284" rx="2.3142" fill="#F3F3F3"/>
<rect x="13.1411" y="68.1055" width="115.71" height="17.3565" fill="#EFFF66"/>
</g>
<path d="M179.598 89.0448C178.841 89.0391 178.05 88.59 178.05 87.0786C178.052 85.6548 178.668 84.8413 179.649 84.8413C180.403 84.8413 180.925 85.3102 181.022 85.9599H180.406C180.324 85.6266 180.061 85.3865 179.649 85.3836C179.016 85.3865 178.649 85.9345 178.649 86.8583H178.694C178.917 86.5108 179.301 86.3074 179.745 86.3046C180.473 86.3074 181.061 86.8667 181.061 87.6493C181.061 88.4431 180.476 89.0504 179.598 89.0448ZM178.722 87.6662C178.725 88.121 179.089 88.5222 179.592 88.525C180.086 88.5222 180.457 88.138 180.457 87.6606C180.457 87.1916 180.101 86.8102 179.609 86.8131C179.109 86.8102 178.728 87.2114 178.722 87.6662ZM183.146 89.0448C182.2 89.0448 181.643 88.282 181.643 86.943C181.643 85.6125 182.205 84.8413 183.146 84.8413C184.084 84.8413 184.646 85.6125 184.649 86.943C184.646 88.282 184.092 89.0448 183.146 89.0448ZM182.264 86.943C182.262 87.9628 182.592 88.508 183.146 88.508C183.697 88.508 184.027 87.9628 184.027 86.943C184.027 85.926 183.694 85.3695 183.146 85.3667C182.595 85.3695 182.264 85.926 182.264 86.943ZM186.231 86.8413C185.671 86.847 185.366 86.4317 185.372 85.8243C185.366 85.2254 185.685 84.8102 186.231 84.813C186.793 84.8102 187.087 85.2254 187.089 85.8243C187.087 86.4345 186.782 86.847 186.231 86.8413ZM185.835 88.9883L188.643 84.8978H189.157L186.349 88.9883H185.835ZM185.835 85.8243C185.838 86.2001 185.968 86.443 186.231 86.4458C186.496 86.443 186.621 86.2001 186.621 85.8243C186.621 85.4571 186.505 85.2057 186.231 85.2085C185.968 85.2141 185.838 85.4599 185.835 85.8243ZM187.954 88.056C187.951 87.4515 188.267 87.0362 188.813 87.0391C189.372 87.0362 189.669 87.4515 189.671 88.056C189.669 88.6606 189.364 89.073 188.813 89.073C188.256 89.073 187.951 88.6578 187.954 88.056ZM188.417 88.056C188.42 88.4261 188.55 88.6719 188.813 88.6719C189.078 88.6719 189.203 88.4261 189.203 88.056C189.203 87.6832 189.087 87.4346 188.813 87.4346C188.553 87.4402 188.42 87.686 188.417 88.056Z" fill="#787878"/>
<defs>
<clipPath id="clip0_2394_118764">
<rect x="14.877" y="75.0469" width="175.879" height="4.6284" rx="2.3142" fill="white"/>
</clipPath>
</defs>
</svg>
