<svg width="207" height="96" viewBox="0 0 207 96" fill="none" xmlns="http://www.w3.org/2000/svg">
<rect x="0.632812" width="205.664" height="95.5854" rx="4.4631" fill="white"/>
<circle cx="17.8244" cy="21.8224" r="2.3146" fill="#FF4A4A"/>
<path d="M28.2573 19.191C29.5558 19.1943 30.5018 19.8352 30.5018 20.8048C30.5018 21.7135 29.7084 22.3204 28.576 22.412V23.6054H31.0511V24.1411H25.4906V23.6054H27.9386V22.412C26.8129 22.3204 26.0161 21.7135 26.0195 20.8048C26.0161 19.8352 26.9655 19.1943 28.2573 19.191ZM26.6434 20.8048C26.6434 21.4863 27.3215 21.9102 28.2573 21.9169C29.1998 21.9102 29.8746 21.4863 29.8779 20.8048C29.8746 20.1471 29.1998 19.7131 28.2573 19.7199C27.3215 19.7131 26.6434 20.1471 26.6434 20.8048ZM37.0455 22.4323V22.9409H35.6486V24.9006H34.9976V22.9409H33.5329V24.9006H32.8887V22.9409H31.4851V22.4323H37.0455ZM32.1428 19.5707V19.0418H36.3878V20.6692H32.8074V21.3406H36.5166V21.8627H32.1632V20.1878H35.73V19.5707H32.1428Z" fill="#787878"/>
<path d="M42.3975 18.9297V24.7162" stroke="#BBBBBB" stroke-width="0.57865"/>
<path d="M49.2603 19.4147V24.3242H48.6432V20.0522H48.6161L47.4226 20.8455V20.2285L48.6432 19.4147H49.2603ZM52.1761 24.392C51.0878 24.392 50.4571 23.4766 50.4605 21.8695C50.4571 20.2759 51.0945 19.3469 52.1761 19.3469C53.2543 19.3469 53.8917 20.2759 53.8917 21.8695C53.8917 23.4766 53.2645 24.392 52.1761 24.392ZM51.0505 21.8695C51.0538 23.1409 51.4641 23.8495 52.1761 23.8495C52.8847 23.8495 53.2984 23.1409 53.295 21.8695C53.2984 20.598 52.8813 19.8792 52.1761 19.8758C51.4709 19.8792 51.0538 20.598 51.0505 21.8695ZM60.0015 22.039V22.473H57.5467V23.6529H57.0178V22.473H54.4817V22.039H60.0015ZM55.1869 24.7446V23.0968H55.7158V24.2971H59.3844V24.7446H55.1869ZM55.2208 21.449V19.0418H55.7497V19.8148H58.7334V19.0418H59.2623V21.449H55.2208ZM55.7497 21.0151H58.7334V20.2217H55.7497V21.0151ZM67.2301 18.8519V23.2732H66.6944V20.9608H65.4534V20.52H66.6944V18.8519H67.2301ZM62.2595 22.0661C63.1479 21.7542 63.7921 20.9574 63.7921 20.0928V19.7809H62.4291V19.3401H65.6772V19.7809H64.3278V20.0928C64.3278 20.8727 64.9313 21.6287 65.8128 21.9305L65.5348 22.3577C64.8567 22.1102 64.3312 21.605 64.0701 20.9812C63.809 21.6796 63.253 22.2323 62.5376 22.5001L62.2595 22.0661ZM63.3581 24.7446V22.8731H63.8938V24.2971H67.3996V24.7446H63.3581Z" fill="#BBBBBB"/>
<path d="M31.3334 39.18L22.1771 61.1876C22.0883 61.401 22.2451 61.6361 22.4762 61.6361H40.9441C41.1761 61.6361 41.333 61.3995 41.2426 61.1858L31.9311 39.1782C31.8191 38.9137 31.4438 38.9148 31.3334 39.18Z" fill="#E8E8E8"/>
<path fill-rule="evenodd" clip-rule="evenodd" d="M28.6076 45.7705L26.7014 50.4208L35.287 47.249L33.8615 43.8294L28.6076 45.7705ZM32.4914 40.5424L31.9153 39.1603C31.8041 38.8936 31.4259 38.8947 31.3163 39.1621L30.4399 41.3003L32.4914 40.5424ZM36.6571 50.536L24.8691 54.891L22.9629 59.5414L38.0826 53.9556L36.6571 50.536ZM39.4527 57.2426L27.6422 61.6059H40.7854C41.0166 61.6059 41.1735 61.3706 41.0845 61.1572L39.4527 57.2426Z" fill="#1E1E1E"/>
<path d="M44.0259 64.8752C44.0259 65.0541 43.8808 65.1992 43.7018 65.1992L20.0466 65.1992C19.8676 65.1992 19.7226 65.0541 19.7226 64.8752L19.7226 61.6347C19.7226 61.4558 19.8676 61.3107 20.0466 61.3107L43.7018 61.3107C43.8808 61.3107 44.0259 61.4558 44.0259 61.6347L44.0259 64.8752Z" fill="#1E1E1E"/>
<path d="M55.7892 48.5554V39.8847H58.2846V40.8883H57.0731V47.5518H58.2846V48.5554H55.7892ZM58.9808 46.7109L58.9718 45.7254L61.3225 43.5645C61.9328 42.9814 62.2628 42.6197 62.2628 42.0998C62.2628 41.5166 61.8243 41.155 61.2231 41.1595C60.6082 41.155 60.2059 41.5438 60.2104 42.1721H58.9175C58.913 40.8928 59.8623 40.0745 61.2411 40.0745C62.6426 40.0745 63.5738 40.8747 63.5738 42.0094C63.5738 42.7553 63.2122 43.3656 61.865 44.5862L60.8705 45.5536V45.5898H63.6642V46.7109H58.9808ZM67.1723 46.8014C65.5313 46.8014 64.5413 45.5808 64.5413 43.4379C64.5413 41.2997 65.5403 40.0745 67.1723 40.0745C68.8043 40.0745 69.8034 41.2997 69.8034 43.4379C69.8034 45.5898 68.8088 46.8014 67.1723 46.8014ZM65.9336 43.4379C65.9246 44.9479 66.4128 45.6802 67.1723 45.6802C67.9318 45.6802 68.4155 44.9479 68.411 43.4379C68.4155 41.9416 67.9273 41.1912 67.1723 41.1866C66.4174 41.1912 65.9336 41.9416 65.9336 43.4379ZM70.7437 46.7109L70.7346 45.7254L73.0854 43.5645C73.6957 42.9814 74.0257 42.6197 74.0257 42.0998C74.0257 41.5166 73.5872 41.155 72.9859 41.1595C72.3711 41.155 71.9688 41.5438 71.9733 42.1721H70.6804C70.6759 40.8928 71.6252 40.0745 73.004 40.0745C74.4054 40.0745 75.3367 40.8747 75.3367 42.0094C75.3367 42.7553 74.9751 43.3656 73.6279 44.5862L72.6333 45.5536V45.5898H75.4271V46.7109H70.7437ZM78.8177 46.8014C77.3801 46.8014 76.3494 46.0102 76.3222 44.8665H77.6965C77.7191 45.3547 78.1938 45.6757 78.8267 45.6802C79.4777 45.6757 79.9433 45.314 79.9388 44.7851C79.9433 44.2517 79.4686 43.8765 78.7001 43.8719H78.0943V42.8683H78.7001C79.3466 42.8683 79.7987 42.5157 79.7941 42.0004C79.7987 41.4986 79.4144 41.155 78.8357 41.1595C78.2571 41.155 77.7824 41.4805 77.7598 41.9823H76.4578C76.4805 40.8566 77.4931 40.0745 78.8357 40.0745C80.201 40.0745 81.1097 40.8837 81.1051 41.919C81.1097 42.6513 80.5988 43.1712 79.8665 43.3023V43.3566C80.8294 43.4741 81.3583 44.0573 81.3493 44.8755C81.3583 45.9967 80.2959 46.8014 78.8177 46.8014ZM90.8156 39.4778V40.0112C90.8156 40.5899 90.8156 41.3629 90.6438 42.3711L89.4865 42.2987C89.5363 42.0275 89.5724 41.7788 89.595 41.5483L84.9297 41.7472L84.8031 40.8611L89.6583 40.7617L89.6719 40.3639H85.0291V39.4778H90.8156ZM84.1883 43.6007V42.7056H86.9821V41.928H88.1394V42.7056H91.6565V43.6007H84.1883ZM85.0381 44.8846V44.0256H90.7614V46.1323H86.1774V46.5482H90.9784V47.4162H85.0472V45.3276H89.6221V44.8846H85.0381ZM98.8806 43.1215V44.0437H93.0579V40.0022H98.8173V40.9335H94.1971V43.1215H98.8806ZM92.1718 46.5392V45.5898H99.7033V46.5392H92.1718ZM102.741 41.8195C102.741 43.0672 103.189 44.3195 104.36 44.9479L103.727 45.7887C102.985 45.409 102.493 44.7444 102.203 43.9443C101.918 44.8168 101.426 45.5536 100.68 45.9876L100.02 45.1196C101.209 44.4325 101.647 43.0899 101.656 41.8195V41.6297H100.327V40.7074H101.656V39.5953H102.732V40.7074H104.034V41.6297H102.741V41.8195ZM103.555 43.3747V42.4343H104.522V39.4507H105.607V47.163H104.522V43.3747H103.555ZM106.195 47.5427V39.3151H107.289V47.5427H106.195ZM115.065 39.3241V45.2372H113.907V39.3241H115.065ZM108.302 41.919C108.302 40.712 109.287 39.844 110.553 39.8485C111.814 39.844 112.8 40.712 112.804 41.919C112.8 43.1441 111.814 44.0076 110.553 44.0076C109.287 44.0076 108.302 43.1441 108.302 41.919ZM109.432 41.919C109.423 42.6061 109.907 43.004 110.553 43.004C111.177 43.004 111.661 42.6061 111.665 41.919C111.661 41.2499 111.177 40.8476 110.553 40.8521C109.907 40.8476 109.423 41.2499 109.432 41.919ZM109.549 47.3981V44.6405H110.716V46.4759H115.282V47.3981H109.549ZM125.019 43.5645V44.4777H119.197V39.9208H124.956V40.8521H120.372V41.7201H124.766V42.6242H120.372V43.5645H125.019ZM118.311 46.5844V45.6441H125.842V46.5844H118.311ZM129.549 39.9299V42.5428H127.768V43.4379C128.649 43.4289 129.309 43.3882 130.082 43.2481L130.191 44.1522C129.251 44.3376 128.437 44.3511 127.216 44.3511H126.647V41.711H128.437V40.825H126.638V39.9299H129.549ZM127.804 47.3981V44.8846H128.961V46.4759H133.591V47.3981H127.804ZM129.856 42.3168V41.3765H130.616V39.4597H131.701V45.3095H130.616V42.3168H129.856ZM132.289 45.5084V39.3241H133.383V45.5084H132.289ZM141.023 43.1215V44.0437H135.2V40.0022H140.959V40.9335H136.339V43.1215H141.023ZM134.314 46.5392V45.5898H141.845V46.5392H134.314ZM151.348 39.3151V47.5608H150.2V39.3151H151.348ZM144.883 40.9335V40.0022H148.798V43.1757H146.086V44.6857C147.343 44.6766 148.405 44.6133 149.612 44.4144L149.711 45.3457C148.36 45.5853 147.135 45.635 145.634 45.635H144.892V42.2626H147.623V40.9335H144.883ZM159.982 45.6621V46.6296H152.451V45.6621H155.615V44.1793H153.075V43.2752H154.178V40.9244H153.039V40.0022H159.35V40.9244H158.192V43.2752H159.313V44.1793H156.764V45.6621H159.982ZM155.335 43.2752H157.053V40.9244H155.335V43.2752ZM167.161 43.5645V44.4777H161.339V39.9208H167.098V40.8521H162.514V41.7201H166.908V42.6242H162.514V43.5645H167.161ZM160.453 46.5844V45.6441H167.984V46.5844H160.453ZM170.886 48.5554H168.391V47.5518H169.602V40.8883H168.391V39.8847H170.886V48.5554Z" fill="#1E1E1E"/>
<path d="M57.3985 54.8485C58.0721 54.844 58.6463 55.0971 59.026 55.5176H61.0513V54.3784H61.9102V59.1613H61.0513V58.0672H59.0215C58.6417 58.4832 58.0676 58.7318 57.3985 58.7273C56.178 58.7318 55.2693 57.9226 55.2738 56.7924C55.2693 55.6487 56.178 54.844 57.3985 54.8485ZM56.0966 56.7924C56.0921 57.5022 56.6391 58.004 57.3985 57.9949C58.1354 58.004 58.6824 57.5022 58.6824 56.7924C58.6824 56.0646 58.1354 55.5809 57.3985 55.5899C56.6391 55.5809 56.0921 56.0646 56.0966 56.7924ZM56.4582 60.9063C56.4537 59.9162 57.5025 59.3376 59.1978 59.3421C60.884 59.3376 61.9328 59.9162 61.9373 60.9063C61.9328 61.8918 60.884 62.4659 59.1978 62.4614C57.5025 62.4659 56.4537 61.8918 56.4582 60.9063ZM57.2991 60.9063C57.2946 61.4623 58.0088 61.7878 59.1978 61.7833C60.3867 61.7878 61.0965 61.4623 61.0965 60.9063C61.0965 60.3276 60.3867 60.0066 59.1978 60.0021C58.0088 60.0066 57.2946 60.3276 57.2991 60.9063ZM59.4193 56.2047C59.4736 56.3855 59.5052 56.5845 59.5052 56.7924C59.5052 56.9913 59.4736 57.1857 59.4193 57.362H61.0513V56.2047H59.4193ZM65.9517 55.6713C65.9472 56.7336 66.6976 57.7237 67.9047 58.1215L67.4436 58.7996C66.5575 58.4877 65.893 57.8548 65.5403 57.0546C65.1877 57.9633 64.5006 58.6775 63.5557 59.0256L63.0946 58.3385C64.3604 57.8909 65.0928 56.8105 65.1018 55.5989V54.8033H65.9517V55.6713ZM64.1886 60.9605C64.1886 60.0112 65.2239 59.4551 66.9101 59.4596C68.5737 59.4551 69.5954 60.0112 69.5954 60.9605C69.5954 61.9189 68.5737 62.4659 66.9101 62.4614C65.2239 62.4659 64.1886 61.9189 64.1886 60.9605ZM65.0476 60.9605C65.0431 61.4939 65.7393 61.7833 66.9101 61.7923C68.0719 61.7833 68.7591 61.4939 68.7546 60.9605C68.7591 60.4451 68.0719 60.1377 66.9101 60.1377C65.7393 60.1377 65.0431 60.4451 65.0476 60.9605ZM68.6641 59.2698V54.3784H69.5231V56.4127H70.6985V57.136H69.5231V59.2698H68.6641ZM80.1739 54.3874V60.3728H79.3149V58.2662H77.5428V59.0256H73.8087V54.9208H74.6676V56.2951H76.6929V54.9208H77.5428V55.825H79.3149V54.3874H80.1739ZM74.6676 58.3294H76.6929V56.9552H74.6676V58.3294ZM74.8846 62.3077V59.7851H75.7526V61.6115H80.3547V62.3077H74.8846ZM77.5428 57.57H79.3149V56.5302H77.5428V57.57ZM87.7958 54.3784V57.1541H88.9531V57.8683H87.7958V60.7073H86.9368V54.3784H87.7958ZM81.3673 59.1341C81.9912 59.1341 82.719 59.1341 83.483 59.107V58.5419C82.5608 58.4334 81.9731 57.9904 81.9822 57.3259C81.9731 56.5392 82.7462 56.0691 83.908 56.0781C85.0698 56.0691 85.8293 56.5392 85.8338 57.3259C85.8293 57.9904 85.2551 58.4334 84.342 58.5374V59.0663C85.0653 59.0256 85.7976 58.9578 86.4757 58.8539L86.5481 59.4596C84.8212 59.7851 82.8727 59.8077 81.4577 59.8213L81.3673 59.1341ZM81.5753 55.7617V55.1288H83.483V54.3512H84.342V55.1288H86.2497V55.7617H81.5753ZM82.5608 62.3077V60.2824H83.4197V61.6115H88.0851V62.3077H82.5608ZM82.7959 57.3259C82.7959 57.7192 83.2163 57.9678 83.908 57.9678C84.5906 57.9678 85.0155 57.7192 85.011 57.3259C85.0155 56.9054 84.5906 56.6613 83.908 56.6658C83.2163 56.6613 82.7959 56.9054 82.7959 57.3259ZM95.9873 58.1125V58.7996H93.5371V60.7797H96.8372V61.4849H89.4232V60.7797H92.6872V58.7996H90.3455V55.0022H95.915V55.6984H91.2044V58.1125H95.9873ZM104.812 58.1305V58.8267H101.539V59.6043C103.022 59.6857 103.903 60.1829 103.908 61.0328C103.903 61.9505 102.854 62.4659 101.114 62.4614C99.3507 62.4659 98.3019 61.9505 98.3019 61.0328C98.3019 60.1829 99.1834 59.6811 100.689 59.6043V58.8267H97.4249V58.1305H104.812ZM97.8137 57.0275C99.2693 56.8783 100.418 56.2183 100.535 55.4362H98.103V54.749H104.152V55.4362H101.692C101.81 56.2228 102.949 56.8783 104.432 57.0275L104.125 57.7056C102.719 57.5428 101.557 56.9506 101.118 56.0917C100.671 56.9506 99.518 57.5428 98.112 57.7056L97.8137 57.0275ZM99.1699 61.0328C99.1654 61.5256 99.8751 61.8104 101.114 61.8014C102.334 61.8104 103.049 61.5256 103.049 61.0328C103.049 60.531 102.334 60.2598 101.114 60.2553C99.8751 60.2598 99.1654 60.531 99.1699 61.0328ZM111.376 54.8666C113.107 54.8711 114.368 55.7255 114.368 57.0184C114.368 58.23 113.311 59.0392 111.801 59.1613V60.7525H115.101V61.4668H107.687V60.7525H110.951V59.1613C109.45 59.0392 108.388 58.23 108.392 57.0184C108.388 55.7255 109.653 54.8711 111.376 54.8666ZM109.224 57.0184C109.224 57.9271 110.128 58.4922 111.376 58.5012C112.633 58.4922 113.532 57.9271 113.537 57.0184C113.532 56.1414 112.633 55.5628 111.376 55.5718C110.128 55.5628 109.224 56.1414 109.224 57.0184ZM123.093 59.1884V59.8665H121.231V62.4795H120.363V59.8665H118.41V62.4795H117.551V59.8665H115.679V59.1884H123.093ZM116.557 55.3729V54.6677H122.216V56.8376H117.443V57.7327H122.388V58.4289H116.584V56.1957H121.339V55.3729H116.557ZM130.001 54.3784V57.6061H131.258V58.3204H130.001V62.4704H129.142V54.3784H130.001ZM123.699 60.3095C125.729 59.2969 126.832 57.8322 127.008 55.9425H124.106V55.2282H127.885C127.876 57.57 126.846 59.6631 124.178 60.9786L123.699 60.3095ZM136.43 55.9335C136.43 56.8195 136.995 57.7146 138.048 58.1125L137.596 58.7725C136.841 58.4832 136.312 57.9316 136.023 57.2671C135.724 58.0175 135.173 58.6685 134.386 59.0076L133.916 58.3385C135.01 57.8638 135.598 56.8331 135.598 55.9335V54.8847H136.43V55.9335ZM135.408 60.9967C135.399 60.0744 136.452 59.5274 138.147 59.5229C139.838 59.5274 140.901 60.0744 140.905 60.9967C140.901 61.9189 139.838 62.4659 138.147 62.4614C136.452 62.4659 135.399 61.9189 135.408 60.9967ZM136.258 60.9967C136.249 61.512 136.968 61.8104 138.147 61.8014C139.323 61.8104 140.042 61.512 140.046 60.9967C140.042 60.4768 139.323 60.1784 138.147 60.1829C136.968 60.1784 136.249 60.4768 136.258 60.9967ZM138.301 59.1161V54.5321H139.097V56.494H140.046V54.3874H140.86V59.3692H140.046V57.1993H139.097V59.1161H138.301ZM146.176 54.8847C146.176 55.1559 146.149 55.4181 146.099 55.6713H147.849V54.3874H148.708V58.9714H147.849V58.0582H145.805V57.3439H147.849V56.3675H145.891C145.367 57.6604 144.133 58.5871 142.379 59.0708L142.044 58.4018C143.92 57.8864 145.082 56.8693 145.258 55.5899H142.487V54.8847H146.176ZM142.352 61.7471C143.391 61.39 143.952 60.522 143.961 59.7399V59.2065H144.793V59.7399C144.788 60.4451 145.132 61.182 145.869 61.6341C146.61 61.1458 146.972 60.3638 146.981 59.7399V59.2065H147.804V59.7399C147.799 60.5853 148.364 61.4081 149.422 61.7471L148.988 62.389C148.197 62.1088 147.654 61.5663 147.379 60.9017C147.121 61.5527 146.633 62.154 145.878 62.4614C145.1 62.1675 144.617 61.5934 144.368 60.9243C144.079 61.5663 143.55 62.1042 142.795 62.389L142.352 61.7471ZM152.153 54.9841C153.256 54.9886 154.056 55.9199 154.187 57.4163H155.86V54.3784H156.709V62.4975H155.86V58.1125H154.196C154.101 59.6947 153.283 60.6757 152.153 60.6712C150.946 60.6757 150.091 59.5726 150.1 57.8231C150.091 56.0917 150.946 54.9886 152.153 54.9841ZM150.914 57.8231C150.918 59.1115 151.42 59.9027 152.153 59.9027C152.885 59.9027 153.387 59.1115 153.391 57.8231C153.387 56.5528 152.885 55.7572 152.153 55.7526C151.42 55.7572 150.918 56.5528 150.914 57.8231ZM165.371 60.7525V61.4668H157.957V60.7525H159.729V58.6369C159.065 58.2707 158.658 57.692 158.662 56.9642C158.658 55.6894 159.91 54.853 161.646 54.8485C163.387 54.853 164.639 55.6894 164.639 56.9642C164.639 57.6785 164.25 58.2526 163.599 58.6188V60.7525H165.371ZM159.494 56.9642C159.494 57.8322 160.376 58.3973 161.646 58.4018C162.907 58.3973 163.802 57.8322 163.807 56.9642C163.802 56.0917 162.907 55.5357 161.646 55.5357C160.376 55.5357 159.494 56.0917 159.494 56.9642ZM160.579 60.7525H162.731V58.9533C162.401 59.0302 162.035 59.0708 161.646 59.0708C161.266 59.0708 160.905 59.0302 160.579 58.9533V60.7525ZM175.597 57.0817V57.787H173.68V61.2227H172.821V57.787H170.977V61.2227H170.109V57.787H168.237V57.0817H175.597ZM57.3533 69.9841C58.4564 69.9886 59.2566 70.9199 59.3877 72.4163H61.0603V69.3784H61.9102V77.4975H61.0603V73.1125H59.3967C59.3018 74.6947 58.4835 75.6757 57.3533 75.6712C56.1463 75.6757 55.2919 74.5726 55.3009 72.8231C55.2919 71.0917 56.1463 69.9886 57.3533 69.9841ZM56.1147 72.8231C56.1192 74.1115 56.621 74.9027 57.3533 74.9027C58.0857 74.9027 58.5875 74.1115 58.592 72.8231C58.5875 71.5528 58.0857 70.7572 57.3533 70.7526C56.621 70.7572 56.1192 71.5528 56.1147 72.8231ZM70.2012 76.6115V77.3077H64.487V74.767H65.3459V76.6115H70.2012ZM63.3568 74.0076V70.0293H65.4273V70.7255H64.1886V73.3114C64.5955 73.2978 65.025 73.2571 65.5087 73.1486L65.581 73.8539C64.8668 74.0076 64.3017 74.0076 63.7185 74.0076H63.3568ZM65.8613 74.0076V70.0293H68.1217V70.7255H66.7112V73.3159C67.3712 73.3068 67.8459 73.2662 68.3839 73.1396L68.4743 73.8358C67.7781 73.9895 67.2175 74.0076 66.2772 74.0076H65.8613ZM67.769 72.2806V71.5845H69.1433V69.3874H69.9842V75.2643H69.1433V72.2806H67.769ZM80.8248 73.4741V74.1703H77.6061V75.7435H76.7562V74.1703H73.4109V73.4741H80.8248ZM74.3331 77.3077V74.975H75.192V76.6115H80.0021V77.3077H74.3331ZM74.3602 72.6333V69.7581H79.8665V72.6333H74.3602ZM75.2011 71.9552H79.0166V70.4362H75.2011V71.9552ZM88.3744 69.3784V77.4795H87.5517V69.3784H88.3744ZM81.304 75.2462C82.4523 74.5546 83.0355 73.0808 83.04 71.6387V70.9877H81.5482V70.2915H85.2551V70.9877H83.8628V71.6387C83.8628 73.022 84.4233 74.4099 85.5626 75.0654L85.0472 75.6983C84.2741 75.2372 83.7452 74.4099 83.4604 73.4334C83.1711 74.4913 82.6196 75.3954 81.8284 75.8882L81.304 75.2462ZM84.6584 72.9497V72.2445H85.9152V69.5501H86.7289V77.0726H85.9152V72.9497H84.6584ZM96.141 69.3874V75.2734H95.2821V69.3874H96.141ZM89.586 71.9371C89.5905 70.7662 90.5218 69.9344 91.7469 69.9299C92.9675 69.9344 93.8987 70.7662 93.8987 71.9371C93.8987 73.126 92.9675 73.9533 91.7469 73.9533C90.5218 73.9533 89.5905 73.126 89.586 71.9371ZM90.4268 71.9371C90.4223 72.7011 90.9919 73.2029 91.7469 73.2029C92.4883 73.2029 93.0579 72.7011 93.0579 71.9371C93.0579 71.1912 92.4883 70.6803 91.7469 70.6803C90.9919 70.6803 90.4223 71.1912 90.4268 71.9371ZM90.8427 77.3077V74.6766H91.7107V76.6115H96.3851V77.3077H90.8427ZM100.409 71.7653C100.404 73.1215 101.295 74.5229 102.542 75.0564L102.072 75.7254C101.118 75.305 100.359 74.4099 99.9836 73.3294C99.6084 74.4867 98.8489 75.4723 97.9041 75.9334L97.4068 75.2553C98.6274 74.6811 99.5315 73.1622 99.5406 71.7653V70.9063H97.6871V70.1921H102.253V70.9063H100.409V71.7653ZM103.275 77.4795V69.3784H104.134V77.4795H103.275ZM114.061 69.3874V71.7924H115.218V72.4976H114.061V74.8394H113.202V69.3874H114.061ZM107.633 73.9352C108.261 73.9352 108.989 73.9352 109.748 73.9171V73.3701C108.826 73.2662 108.238 72.8322 108.247 72.1812C108.238 71.4398 109.011 70.9787 110.173 70.9877C111.335 70.9787 112.095 71.4398 112.099 72.1812C112.095 72.8277 111.52 73.2616 110.607 73.3701V73.8855C111.331 73.8493 112.063 73.7906 112.741 73.6911L112.813 74.3059C111.073 74.6088 109.152 74.6224 107.723 74.6224L107.633 73.9352ZM107.841 70.7165V70.0745H109.748V69.3151H110.607V70.0745H112.515V70.7165H107.841ZM108.645 75.8882V75.2191H114.061V77.4795H113.202V75.8882H108.645ZM109.061 72.1812C109.061 72.5609 109.482 72.8096 110.173 72.805C110.856 72.8096 111.281 72.5609 111.276 72.1812C111.281 71.7924 110.856 71.5664 110.173 71.5754C109.482 71.5664 109.061 71.7924 109.061 72.1812ZM122.406 69.3874V75.2734H121.547V69.3874H122.406ZM115.851 71.9371C115.856 70.7662 116.787 69.9344 118.012 69.9299C119.233 69.9344 120.164 70.7662 120.164 71.9371C120.164 73.126 119.233 73.9533 118.012 73.9533C116.787 73.9533 115.856 73.126 115.851 71.9371ZM116.692 71.9371C116.688 72.7011 117.257 73.2029 118.012 73.2029C118.754 73.2029 119.323 72.7011 119.323 71.9371C119.323 71.1912 118.754 70.6803 118.012 70.6803C117.257 70.6803 116.688 71.1912 116.692 71.9371ZM117.108 77.3077V74.6766H117.976V76.6115H122.65V77.3077H117.108ZM127.696 70.7165V71.4127H123.672V70.7165H125.263V69.6134H126.113V70.7165H127.696ZM123.934 73.7634C123.93 72.6739 124.671 71.9009 125.688 71.9009C126.715 71.9009 127.447 72.6739 127.451 73.7634C127.447 74.871 126.715 75.6486 125.688 75.6441C124.671 75.6486 123.93 74.871 123.934 73.7634ZM124.694 73.7634C124.689 74.4506 125.105 74.9117 125.688 74.9117C126.272 74.9117 126.692 74.4506 126.692 73.7634C126.692 73.0899 126.272 72.6197 125.688 72.6152C125.105 72.6197 124.689 73.0899 124.694 73.7634ZM128.066 77.0997V69.5592H128.88V72.7508H129.811V69.3784H130.625V77.4795H129.811V73.456H128.88V77.0997H128.066ZM139.106 75.7616V76.4759H131.692V75.7616H134.956V74.098H132.542V69.9299H133.401V71.3223H137.379V69.9299H138.229V74.098H135.806V75.7616H139.106ZM133.401 73.4018H137.379V72.0184H133.401V73.4018ZM142.162 71.5935C142.162 72.8864 142.704 74.2652 143.789 74.9298L143.31 75.5898C142.551 75.1332 142.04 74.324 141.759 73.3882C141.466 74.4144 140.905 75.2914 140.118 75.7706L139.585 75.1287C140.729 74.4415 141.335 73.0085 141.33 71.6297V70.1197H142.162V71.5935ZM142.912 72.9407V72.2264H144.169V69.5321H144.983V77.0816H144.169V72.9407H142.912ZM145.842 77.4795V69.3784H146.664V77.4795H145.842ZM155.109 75.7525V76.4668H147.695V75.7525H149.467V73.6369C148.803 73.2707 148.396 72.692 148.4 71.9642C148.396 70.6894 149.648 69.853 151.384 69.8485C153.125 69.853 154.377 70.6894 154.377 71.9642C154.377 72.6785 153.988 73.2526 153.337 73.6188V75.7525H155.109ZM149.232 71.9642C149.232 72.8322 150.114 73.3973 151.384 73.4018C152.645 73.3973 153.54 72.8322 153.545 71.9642C153.54 71.0917 152.645 70.5357 151.384 70.5357C150.114 70.5357 149.232 71.0917 149.232 71.9642ZM150.317 75.7525H152.469V73.9533C152.139 74.0302 151.773 74.0708 151.384 74.0708C151.004 74.0708 150.643 74.0302 150.317 73.9533V75.7525ZM157.189 70.165L157.107 74.8213H156.212L156.131 70.165H157.189ZM156.022 76.1323C156.018 75.7797 156.312 75.4903 156.664 75.4903C157.012 75.4903 157.302 75.7797 157.306 76.1323C157.302 76.4849 157.012 76.7697 156.664 76.7742C156.312 76.7697 156.018 76.4849 156.022 76.1323Z" fill="#787878"/>
</svg>
