<svg width="207" height="96" viewBox="0 0 207 96" fill="none" xmlns="http://www.w3.org/2000/svg">
<rect x="0.65332" width="205.664" height="95.5854" rx="4.4631" fill="white"/>
<circle cx="17.8449" cy="21.8224" r="2.3146" fill="#E9FF3F"/>
<path d="M26.8439 19.1774C27.3491 19.174 27.7797 19.3639 28.0645 19.6792H29.5835V18.8248H30.2277V22.412H29.5835V21.5915H28.0611C27.7763 21.9034 27.3457 22.0899 26.8439 22.0865C25.9285 22.0899 25.247 21.483 25.2504 20.6353C25.247 19.7775 25.9285 19.174 26.8439 19.1774ZM25.8675 20.6353C25.8641 21.1676 26.2743 21.544 26.8439 21.5372C27.3966 21.544 27.8069 21.1676 27.8069 20.6353C27.8069 20.0894 27.3966 19.7267 26.8439 19.7334C26.2743 19.7267 25.8641 20.0894 25.8675 20.6353ZM26.1387 23.7207C26.1353 22.9782 26.9219 22.5442 28.1934 22.5476C29.458 22.5442 30.2446 22.9782 30.248 23.7207C30.2446 24.4598 29.458 24.8904 28.1934 24.887C26.9219 24.8904 26.1353 24.4598 26.1387 23.7207ZM26.7694 23.7207C26.766 24.1377 27.3017 24.3819 28.1934 24.3785C29.0851 24.3819 29.6174 24.1377 29.6174 23.7207C29.6174 23.2867 29.0851 23.046 28.1934 23.0426C27.3017 23.046 26.766 23.2867 26.7694 23.7207ZM28.3595 20.1946C28.4002 20.3302 28.4239 20.4794 28.4239 20.6353C28.4239 20.7845 28.4002 20.9303 28.3595 21.0625H29.5835V20.1946H28.3595ZM33.2588 19.7945C33.2554 20.5912 33.8183 21.3338 34.7235 21.6321L34.3777 22.1407C33.7132 21.9068 33.2147 21.4321 32.9503 20.832C32.6858 21.5135 32.1705 22.0492 31.4618 22.3102L31.116 21.7949C32.0654 21.4592 32.6146 20.6489 32.6214 19.7402V19.1435H33.2588V19.7945ZM31.9365 23.7614C31.9365 23.0494 32.713 22.6323 33.9776 22.6357C35.2253 22.6323 35.9916 23.0494 35.9916 23.7614C35.9916 24.4802 35.2253 24.8904 33.9776 24.887C32.713 24.8904 31.9365 24.4802 31.9365 23.7614ZM32.5807 23.7614C32.5773 24.1615 33.0995 24.3785 33.9776 24.3852C34.849 24.3785 35.3643 24.1615 35.361 23.7614C35.3643 23.3749 34.849 23.1443 33.9776 23.1443C33.0995 23.1443 32.5773 23.3749 32.5807 23.7614ZM35.2931 22.4933V18.8248H35.9373V20.3505H36.8189V20.893H35.9373V22.4933H35.2931ZM43.9254 18.8316V23.3206H43.2812V21.7406H41.9521V22.3102H39.1516V19.2316H39.7958V20.2624H41.3147V19.2316H41.9521V19.9097H43.2812V18.8316H43.9254ZM39.7958 21.7881H41.3147V20.7574H39.7958V21.7881ZM39.9585 24.7718V22.8799H40.6095V24.2496H44.0611V24.7718H39.9585ZM41.9521 21.2185H43.2812V20.4387H41.9521V21.2185ZM49.6419 18.8248V20.9066H50.5098V21.4423H49.6419V23.5715H48.9977V18.8248H49.6419ZM44.8205 22.3916C45.2884 22.3916 45.8343 22.3916 46.4073 22.3713V21.9475C45.7156 21.8661 45.2749 21.5338 45.2816 21.0354C45.2749 20.4455 45.8546 20.0928 46.726 20.0996C47.5974 20.0928 48.167 20.4455 48.1704 21.0354C48.167 21.5338 47.7364 21.8661 47.0515 21.9441V22.3408C47.594 22.3102 48.1433 22.2594 48.6518 22.1814L48.7061 22.6357C47.4109 22.8799 45.9496 22.8968 44.8883 22.907L44.8205 22.3916ZM44.9765 19.8623V19.3876H46.4073V18.8044H47.0515V19.3876H48.4823V19.8623H44.9765ZM45.7156 24.7718V23.2528H46.3598V24.2496H49.8589V24.7718H45.7156ZM45.8919 21.0354C45.8919 21.3304 46.2073 21.5169 46.726 21.5169C47.238 21.5169 47.5567 21.3304 47.5533 21.0354C47.5567 20.7201 47.238 20.537 46.726 20.5404C46.2073 20.537 45.8919 20.7201 45.8919 21.0354Z" fill="#787878"/>
<path d="M55.418 18.9297V24.7162" stroke="#BBBBBB" stroke-width="0.57865"/>
<path d="M62.2808 19.4147V24.3242H61.6637V20.0522H61.6366L60.4431 20.8455V20.2285L61.6637 19.4147H62.2808ZM65.1966 24.392C64.1083 24.392 63.4776 23.4766 63.481 21.8695C63.4776 20.2759 64.115 19.3469 65.1966 19.3469C66.2748 19.3469 66.9122 20.2759 66.9122 21.8695C66.9122 23.4766 66.285 24.392 65.1966 24.392ZM64.071 21.8695C64.0744 23.1409 64.4846 23.8495 65.1966 23.8495C65.9052 23.8495 66.3189 23.1409 66.3155 21.8695C66.3189 20.598 65.9018 19.8792 65.1966 19.8758C64.4914 19.8792 64.0744 20.598 64.071 21.8695ZM73.022 22.039V22.473H70.5672V23.6529H70.0383V22.473H67.5022V22.039H73.022ZM68.2074 24.7446V23.0968H68.7363V24.2971H72.4049V24.7446H68.2074ZM68.2413 21.449V19.0418H68.7702V19.8148H71.7539V19.0418H72.2828V21.449H68.2413ZM68.7702 21.0151H71.7539V20.2217H68.7702V21.0151ZM80.2506 18.8519V23.2732H79.7149V20.9608H78.4739V20.52H79.7149V18.8519H80.2506ZM75.2801 22.0661C76.1684 21.7542 76.8126 20.9574 76.8126 20.0928V19.7809H75.4496V19.3401H78.6977V19.7809H77.3483V20.0928C77.3483 20.8727 77.9518 21.6287 78.8333 21.9305L78.5553 22.3577C77.8772 22.1102 77.3517 21.605 77.0906 20.9812C76.8295 21.6796 76.2735 22.2323 75.5581 22.5001L75.2801 22.0661ZM76.3786 24.7446V22.8731H76.9143V24.2971H80.4201V24.7446H76.3786Z" fill="#BBBBBB"/>
<path d="M20.7148 63.2525V46.4022C20.7148 46.2232 20.8599 46.0781 21.0389 46.0781H26.3125C26.4214 46.0781 26.523 46.1328 26.5829 46.2237L28.6996 49.4322C28.7596 49.5231 28.8612 49.5778 28.9701 49.5778H38.8613C39.0403 49.5778 39.1854 49.7229 39.1854 49.9018V63.2525C39.1854 63.4314 39.0403 63.5765 38.8613 63.5765H21.0389C20.8599 63.5765 20.7148 63.4314 20.7148 63.2525Z" fill="#1E1E1E"/>
<path d="M23.7445 52.1533L20.819 63.4948C20.7661 63.6999 20.921 63.8998 21.1328 63.8998H39.027C39.1712 63.8998 39.298 63.8045 39.3382 63.6661L42.6293 52.3245C42.6895 52.1172 42.534 51.9102 42.3181 51.9102H24.0583C23.9105 51.9102 23.7814 52.0102 23.7445 52.1533Z" fill="#E8E8E8"/>
<path fill-rule="evenodd" clip-rule="evenodd" d="M39.8336 39.5977H23.6313V47.3747H30.6099L31.7325 49.319L32.855 47.3747H39.8336V39.5977Z" fill="#DFFF00"/>
<g clip-path="url(#clip0_2394_118766)">
<path fill-rule="evenodd" clip-rule="evenodd" d="M29.4629 42.0707C29.4969 42.0416 29.548 42.0455 29.5771 42.0795L31.981 44.8828C32.0101 44.9168 32.0062 44.9679 31.9723 44.9971L31.2598 45.608C31.2259 45.6371 31.1747 45.6332 31.1456 45.5992L28.7417 42.7959C28.7126 42.7619 28.7165 42.7108 28.7505 42.6816L29.4629 42.0707Z" fill="#787878"/>
<path fill-rule="evenodd" clip-rule="evenodd" d="M35.2581 42.0963C35.2873 42.1302 35.2835 42.1814 35.2496 42.2106L31.2872 45.6273C31.2533 45.6565 31.2022 45.6528 31.1729 45.6189L30.5601 44.9081C30.5308 44.8742 30.5346 44.8231 30.5685 44.7939L34.5309 41.3771C34.5648 41.3479 34.616 41.3517 34.6452 41.3856L35.2581 42.0963Z" fill="#1E1E1E"/>
</g>
<path d="M55.8097 48.5554V39.8847H58.3051V40.8883H57.0936V47.5518H58.3051V48.5554H55.8097ZM59.0013 46.7109L58.9923 45.7254L61.343 43.5645C61.9533 42.9814 62.2833 42.6197 62.2833 42.0998C62.2833 41.5166 61.8448 41.155 61.2436 41.1595C60.6288 41.155 60.2264 41.5438 60.2309 42.1721H58.938C58.9335 40.8928 59.8828 40.0745 61.2617 40.0745C62.6631 40.0745 63.5943 40.8747 63.5943 42.0094C63.5943 42.7553 63.2327 43.3656 61.8855 44.5862L60.891 45.5536V45.5898H63.6848V46.7109H59.0013ZM67.1928 46.8014C65.5518 46.8014 64.5618 45.5808 64.5618 43.4379C64.5618 41.2997 65.5608 40.0745 67.1928 40.0745C68.8248 40.0745 69.8239 41.2997 69.8239 43.4379C69.8239 45.5898 68.8293 46.8014 67.1928 46.8014ZM65.9541 43.4379C65.9451 44.9479 66.4333 45.6802 67.1928 45.6802C67.9523 45.6802 68.436 44.9479 68.4315 43.4379C68.436 41.9416 67.9478 41.1912 67.1928 41.1866C66.4379 41.1912 65.9541 41.9416 65.9541 43.4379ZM70.7642 46.7109L70.7551 45.7254L73.1059 43.5645C73.7162 42.9814 74.0462 42.6197 74.0462 42.0998C74.0462 41.5166 73.6077 41.155 73.0065 41.1595C72.3916 41.155 71.9893 41.5438 71.9938 42.1721H70.7009C70.6964 40.8928 71.6457 40.0745 73.0245 40.0745C74.426 40.0745 75.3572 40.8747 75.3572 42.0094C75.3572 42.7553 74.9956 43.3656 73.6484 44.5862L72.6538 45.5536V45.5898H75.4476V46.7109H70.7642ZM78.8382 46.8014C77.4006 46.8014 76.3699 46.0102 76.3427 44.8665H77.717C77.7396 45.3547 78.2143 45.6757 78.8472 45.6802C79.4982 45.6757 79.9638 45.314 79.9593 44.7851C79.9638 44.2517 79.4891 43.8765 78.7206 43.8719H78.1149V42.8683H78.7206C79.3671 42.8683 79.8192 42.5157 79.8146 42.0004C79.8192 41.4986 79.4349 41.155 78.8562 41.1595C78.2776 41.155 77.8029 41.4805 77.7803 41.9823H76.4784C76.501 40.8566 77.5136 40.0745 78.8562 40.0745C80.2215 40.0745 81.1302 40.8837 81.1256 41.919C81.1302 42.6513 80.6193 43.1712 79.887 43.3023V43.3566C80.8499 43.4741 81.3788 44.0573 81.3698 44.8755C81.3788 45.9967 80.3164 46.8014 78.8382 46.8014ZM90.8361 39.4778V40.0112C90.8361 40.5899 90.8361 41.3629 90.6643 42.3711L89.507 42.2987C89.5568 42.0275 89.5929 41.7788 89.6155 41.5483L84.9502 41.7472L84.8236 40.8611L89.6788 40.7617L89.6924 40.3639H85.0496V39.4778H90.8361ZM84.2088 43.6007V42.7056H87.0026V41.928H88.1599V42.7056H91.677V43.6007H84.2088ZM85.0587 44.8846V44.0256H90.7819V46.1323H86.1979V46.5482H90.9989V47.4162H85.0677V45.3276H89.6427V44.8846H85.0587ZM98.9011 43.1215V44.0437H93.0784V40.0022H98.8378V40.9335H94.2176V43.1215H98.9011ZM92.1923 46.5392V45.5898H99.7238V46.5392H92.1923ZM102.762 41.8195C102.762 43.0672 103.209 44.3195 104.38 44.9479L103.747 45.7887C103.006 45.409 102.513 44.7444 102.224 43.9443C101.939 44.8168 101.446 45.5536 100.7 45.9876L100.04 45.1196C101.229 44.4325 101.668 43.0899 101.677 41.8195V41.6297H100.348V40.7074H101.677V39.5953H102.753V40.7074H104.055V41.6297H102.762V41.8195ZM103.575 43.3747V42.4343H104.543V39.4507H105.628V47.163H104.543V43.3747H103.575ZM106.216 47.5427V39.3151H107.31V47.5427H106.216ZM115.085 39.3241V45.2372H113.928V39.3241H115.085ZM108.322 41.919C108.322 40.712 109.308 39.844 110.574 39.8485C111.835 39.844 112.82 40.712 112.825 41.919C112.82 43.1441 111.835 44.0076 110.574 44.0076C109.308 44.0076 108.322 43.1441 108.322 41.919ZM109.452 41.919C109.443 42.6061 109.927 43.004 110.574 43.004C111.197 43.004 111.681 42.6061 111.686 41.919C111.681 41.2499 111.197 40.8476 110.574 40.8521C109.927 40.8476 109.443 41.2499 109.452 41.919ZM109.57 47.3981V44.6405H110.736V46.4759H115.302V47.3981H109.57ZM125.04 43.5645V44.4777H119.217V39.9208H124.976V40.8521H120.393V41.7201H124.787V42.6242H120.393V43.5645H125.04ZM118.331 46.5844V45.6441H125.863V46.5844H118.331ZM129.57 39.9299V42.5428H127.788V43.4379C128.67 43.4289 129.33 43.3882 130.103 43.2481L130.211 44.1522C129.271 44.3376 128.457 44.3511 127.237 44.3511H126.667V41.711H128.457V40.825H126.658V39.9299H129.57ZM127.825 47.3981V44.8846H128.982V46.4759H133.611V47.3981H127.825ZM129.877 42.3168V41.3765H130.636V39.4597H131.721V45.3095H130.636V42.3168H129.877ZM132.309 45.5084V39.3241H133.403V45.5084H132.309ZM141.043 43.1215V44.0437H135.22V40.0022H140.98V40.9335H136.36V43.1215H141.043ZM134.334 46.5392V45.5898H141.866V46.5392H134.334ZM151.368 39.3151V47.5608H150.22V39.3151H151.368ZM144.904 40.9335V40.0022H148.819V43.1757H146.106V44.6857C147.363 44.6766 148.425 44.6133 149.632 44.4144L149.732 45.3457C148.38 45.5853 147.155 45.635 145.654 45.635H144.913V42.2626H147.643V40.9335H144.904ZM160.003 45.6621V46.6296H152.471V45.6621H155.636V44.1793H153.095V43.2752H154.198V40.9244H153.059V40.0022H159.37V40.9244H158.213V43.2752H159.334V44.1793H156.784V45.6621H160.003ZM155.356 43.2752H157.074V40.9244H155.356V43.2752ZM167.182 43.5645V44.4777H161.359V39.9208H167.119V40.8521H162.535V41.7201H166.929V42.6242H162.535V43.5645H167.182ZM160.473 46.5844V45.6441H168.005V46.5844H160.473ZM170.907 48.5554H168.411V47.5518H169.623V40.8883H168.411V39.8847H170.907V48.5554Z" fill="#1E1E1E"/>
<path d="M57.4191 54.8485C58.0926 54.844 58.6668 55.0971 59.0465 55.5176H61.0718V54.3784H61.9307V59.1613H61.0718V58.0672H59.042C58.6622 58.4832 58.0881 58.7318 57.4191 58.7273C56.1985 58.7318 55.2898 57.9226 55.2943 56.7924C55.2898 55.6487 56.1985 54.844 57.4191 54.8485ZM56.1171 56.7924C56.1126 57.5022 56.6596 58.004 57.4191 57.9949C58.1559 58.004 58.7029 57.5022 58.7029 56.7924C58.7029 56.0646 58.1559 55.5809 57.4191 55.5899C56.6596 55.5809 56.1126 56.0646 56.1171 56.7924ZM56.4787 60.9063C56.4742 59.9162 57.523 59.3376 59.2183 59.3421C60.9045 59.3376 61.9533 59.9162 61.9578 60.9063C61.9533 61.8918 60.9045 62.4659 59.2183 62.4614C57.523 62.4659 56.4742 61.8918 56.4787 60.9063ZM57.3196 60.9063C57.3151 61.4623 58.0294 61.7878 59.2183 61.7833C60.4072 61.7878 61.117 61.4623 61.117 60.9063C61.117 60.3276 60.4072 60.0066 59.2183 60.0021C58.0294 60.0066 57.3151 60.3276 57.3196 60.9063ZM59.4398 56.2047C59.4941 56.3855 59.5257 56.5845 59.5257 56.7924C59.5257 56.9913 59.4941 57.1857 59.4398 57.362H61.0718V56.2047H59.4398ZM65.9722 55.6713C65.9677 56.7336 66.7181 57.7237 67.9252 58.1215L67.4641 58.7996C66.578 58.4877 65.9135 57.8548 65.5608 57.0546C65.2082 57.9633 64.5211 58.6775 63.5763 59.0256L63.1151 58.3385C64.3809 57.8909 65.1133 56.8105 65.1223 55.5989V54.8033H65.9722V55.6713ZM64.2092 60.9605C64.2092 60.0112 65.2444 59.4551 66.9306 59.4596C68.5942 59.4551 69.6159 60.0112 69.6159 60.9605C69.6159 61.9189 68.5942 62.4659 66.9306 62.4614C65.2444 62.4659 64.2092 61.9189 64.2092 60.9605ZM65.0681 60.9605C65.0636 61.4939 65.7598 61.7833 66.9306 61.7923C68.0924 61.7833 68.7796 61.4939 68.7751 60.9605C68.7796 60.4451 68.0924 60.1377 66.9306 60.1377C65.7598 60.1377 65.0636 60.4451 65.0681 60.9605ZM68.6847 59.2698V54.3784H69.5436V56.4127H70.719V57.136H69.5436V59.2698H68.6847ZM77.8888 54.3784V62.4975H77.0299V54.3784H77.8888ZM71.4604 57.8231C71.4604 56.0917 72.3329 54.9886 73.558 54.9841C74.7605 54.9886 75.6465 56.0917 75.6465 57.8231C75.6465 59.5726 74.7605 60.6757 73.558 60.6712C72.3329 60.6757 71.4604 59.5726 71.4604 57.8231ZM72.2922 57.8231C72.2877 59.1115 72.803 59.9027 73.558 59.9027C74.2994 59.9027 74.8147 59.1115 74.8147 57.8231C74.8147 56.5528 74.2994 55.7572 73.558 55.7526C72.803 55.7572 72.2877 56.5528 72.2922 57.8231ZM88.8561 60.7525V61.4668H81.4421V60.7525H84.706V58.881H82.292V55.0293H87.97V58.881H85.5559V60.7525H88.8561ZM83.1238 58.2029H87.1291V55.7165H83.1238V58.2029ZM95.9355 57.362V58.0401H90.4383V54.8395H95.836V55.5357H91.3063V57.362H95.9355ZM89.4347 59.7218V59.0256H96.8487V59.7218H93.5395V62.4614H92.6986V59.7218H89.4347ZM106.46 54.3874V60.3728H105.601V58.2662H103.829V59.0256H100.095V54.9208H100.953V56.2951H102.979V54.9208H103.829V55.825H105.601V54.3874H106.46ZM100.953 58.3294H102.979V56.9552H100.953V58.3294ZM101.17 62.3077V59.7851H102.038V61.6115H106.641V62.3077H101.17ZM103.829 57.57H105.601V56.5302H103.829V57.57ZM114.082 54.3784V57.1541H115.239V57.8683H114.082V60.7073H113.223V54.3784H114.082ZM107.653 59.1341C108.277 59.1341 109.005 59.1341 109.769 59.107V58.5419C108.847 58.4334 108.259 57.9904 108.268 57.3259C108.259 56.5392 109.032 56.0691 110.194 56.0781C111.356 56.0691 112.115 56.5392 112.12 57.3259C112.115 57.9904 111.541 58.4334 110.628 58.5374V59.0663C111.351 59.0256 112.083 58.9578 112.762 58.8539L112.834 59.4596C111.107 59.7851 109.159 59.8077 107.744 59.8213L107.653 59.1341ZM107.861 55.7617V55.1288H109.769V54.3512H110.628V55.1288H112.536V55.7617H107.861ZM108.847 62.3077V60.2824H109.706V61.6115H114.371V62.3077H108.847ZM109.082 57.3259C109.082 57.7192 109.502 57.9678 110.194 57.9678C110.876 57.9678 111.301 57.7192 111.297 57.3259C111.301 56.9054 110.876 56.6613 110.194 56.6658C109.502 56.6613 109.082 56.9054 109.082 57.3259ZM120.537 57.805V58.5103H118.828V60.0112C119.579 59.9795 120.334 59.9298 121.043 59.8484L121.107 60.4813C119.321 60.748 117.404 60.7752 115.863 60.7797L115.754 60.0654C116.437 60.0654 117.192 60.0609 117.969 60.0428V58.5103H116.342V55.1288H120.501V55.825H117.192V57.805H120.537ZM121.55 62.4975V54.3784H122.409V62.4975H121.55ZM126.586 59.7218C126.586 60.4225 126.934 61.1594 127.666 61.607C128.408 61.1232 128.76 60.3366 128.765 59.7218V59.2878H129.606V59.7218C129.606 60.5582 130.157 61.39 131.233 61.729L130.79 62.371C129.994 62.0862 129.452 61.5437 129.172 60.8746C128.914 61.5256 128.43 62.1314 127.68 62.4433C126.911 62.1494 126.419 61.5753 126.165 60.9108C125.876 61.5482 125.338 62.0862 124.579 62.371L124.163 61.729C125.198 61.3674 125.754 60.5084 125.763 59.7218V59.2878H126.586V59.7218ZM123.837 56.7382C123.833 55.617 124.732 54.8214 125.953 54.8214C127.002 54.8214 127.834 55.4407 128.019 56.3584H129.606V54.3784H130.465V58.9714H129.606V57.0637H128.032C127.865 58.004 127.024 58.6459 125.953 58.6459C124.732 58.6459 123.833 57.8548 123.837 56.7382ZM124.66 56.7382C124.656 57.4389 125.203 57.9316 125.953 57.9316C126.685 57.9316 127.232 57.4389 127.237 56.7382C127.232 56.0239 126.685 55.5402 125.953 55.5447C125.203 55.5402 124.656 56.0239 124.66 56.7382ZM133.909 54.9841C135.012 54.9886 135.813 55.9199 135.944 57.4163H137.616V54.3784H138.466V62.4975H137.616V58.1125H135.953C135.858 59.6947 135.04 60.6757 133.909 60.6712C132.702 60.6757 131.848 59.5726 131.857 57.8231C131.848 56.0917 132.702 54.9886 133.909 54.9841ZM132.671 57.8231C132.675 59.1115 133.177 59.9027 133.909 59.9027C134.642 59.9027 135.144 59.1115 135.148 57.8231C135.144 56.5528 134.642 55.7572 133.909 55.7526C133.177 55.7572 132.675 56.5528 132.671 57.8231ZM147.128 60.7525V61.4668H139.714V60.7525H141.486V58.6369C140.822 58.2707 140.415 57.692 140.419 56.9642C140.415 55.6894 141.667 54.853 143.403 54.8485C145.143 54.853 146.396 55.6894 146.396 56.9642C146.396 57.6785 146.007 58.2526 145.356 58.6188V60.7525H147.128ZM141.251 56.9642C141.251 57.8322 142.133 58.3973 143.403 58.4018C144.664 58.3973 145.559 57.8322 145.564 56.9642C145.559 56.0917 144.664 55.5357 143.403 55.5357C142.133 55.5357 141.251 56.0917 141.251 56.9642ZM142.336 60.7525H144.488V58.9533C144.158 59.0302 143.792 59.0708 143.403 59.0708C143.023 59.0708 142.662 59.0302 142.336 58.9533V60.7525ZM149.207 55.165L149.126 59.8213H148.231L148.15 55.165H149.207ZM148.041 61.1323C148.037 60.7797 148.33 60.4903 148.683 60.4903C149.031 60.4903 149.32 60.7797 149.325 61.1323C149.32 61.4849 149.031 61.7697 148.683 61.7742C148.33 61.7697 148.037 61.4849 148.041 61.1323ZM159.216 54.3784V62.4975H158.357V54.3784H159.216ZM152.788 57.8231C152.788 56.0917 153.66 54.9886 154.885 54.9841C156.088 54.9886 156.974 56.0917 156.974 57.8231C156.974 59.5726 156.088 60.6757 154.885 60.6712C153.66 60.6757 152.788 59.5726 152.788 57.8231ZM153.62 57.8231C153.615 59.1115 154.131 59.9027 154.885 59.9027C155.627 59.9027 156.142 59.1115 156.142 57.8231C156.142 56.5528 155.627 55.7572 154.885 55.7526C154.131 55.7572 153.615 56.5528 153.62 57.8231ZM167.462 54.3784V62.4795H166.639V54.3784H167.462ZM160.392 60.2462C161.54 59.5546 162.123 58.0808 162.128 56.6387V55.9877H160.636V55.2915H164.343V55.9877H162.95V56.6387C162.95 58.022 163.511 59.4099 164.65 60.0654L164.135 60.6983C163.362 60.2372 162.833 59.4099 162.548 58.4334C162.259 59.4913 161.707 60.3954 160.916 60.8882L160.392 60.2462ZM163.746 57.9497V57.2445H165.003V54.5501H165.817V62.0726H165.003V57.9497H163.746ZM177.525 54.3784V59.1974H176.666V57.145H175.156V56.4398H176.666V54.3784H177.525ZM170.771 58.4651C172.028 58.0266 172.801 56.9326 172.797 55.8159V55.6351H171.042V54.9389H175.409V55.6351H173.674V55.8069C173.669 56.8331 174.401 57.8322 175.626 58.2481L175.183 58.9262C174.275 58.6143 173.606 57.9633 173.253 57.1631C172.901 58.0672 172.191 58.7951 171.223 59.1522L170.771 58.4651ZM172.073 60.9515C172.069 59.9885 173.108 59.428 174.813 59.4235C176.508 59.428 177.548 59.9885 177.552 60.9515C177.548 61.9144 176.508 62.4749 174.813 62.4795C173.108 62.4749 172.069 61.9144 172.073 60.9515ZM172.923 60.9515C172.919 61.4985 173.624 61.8104 174.813 61.8014C175.993 61.8104 176.698 61.4985 176.702 60.9515C176.698 60.3999 175.993 60.088 174.813 60.0925C173.624 60.088 172.919 60.3999 172.923 60.9515ZM185.5 54.3784V62.4975H184.641V54.3784H185.5ZM179.225 55.8069V55.1107H183.022V58.0672H180.111V59.8394C181.427 59.8348 182.57 59.7716 183.927 59.55L184.008 60.2553C182.575 60.4949 181.354 60.5491 179.921 60.5536H179.234V57.3801H182.145V55.8069H179.225ZM59.8964 71.9732V72.6694H58.3142V73.6956C59.0329 73.6595 59.7472 73.6097 60.4118 73.5374L60.4751 74.1703C58.7481 74.4054 56.854 74.4551 55.3305 74.4506L55.213 73.7634C55.9046 73.7589 56.6731 73.7499 57.4643 73.7273V72.6694H55.9363V69.8937H59.8241V70.5899H56.7952V71.9732H59.8964ZM56.5511 77.3077V75.0202H57.41V76.6115H62.1477V77.3077H56.5511ZM61.0356 75.4542V69.3784H61.8946V75.4542H61.0356ZM67.6811 69.8485C68.3546 69.844 68.9288 70.0971 69.3085 70.5176H71.3338V69.3784H72.1927V74.1613H71.3338V73.0672H69.304C68.9243 73.4832 68.3501 73.7318 67.6811 73.7273C66.4605 73.7318 65.5518 72.9226 65.5563 71.7924C65.5518 70.6487 66.4605 69.844 67.6811 69.8485ZM66.3791 71.7924C66.3746 72.5022 66.9216 73.004 67.6811 72.9949C68.4179 73.004 68.9649 72.5022 68.9649 71.7924C68.9649 71.0646 68.4179 70.5809 67.6811 70.5899C66.9216 70.5809 66.3746 71.0646 66.3791 71.7924ZM66.7408 75.9063C66.7362 74.9162 67.785 74.3376 69.4803 74.3421C71.1665 74.3376 72.2153 74.9162 72.2198 75.9063C72.2153 76.8918 71.1665 77.4659 69.4803 77.4614C67.785 77.4659 66.7362 76.8918 66.7408 75.9063ZM67.5816 75.9063C67.5771 76.4623 68.2914 76.7878 69.4803 76.7833C70.6692 76.7878 71.379 76.4623 71.379 75.9063C71.379 75.3276 70.6692 75.0066 69.4803 75.0021C68.2914 75.0066 67.5771 75.3276 67.5816 75.9063ZM69.7018 71.2047C69.7561 71.3855 69.7877 71.5845 69.7877 71.7924C69.7877 71.9913 69.7561 72.1857 69.7018 72.362H71.3338V71.2047H69.7018ZM76.2342 70.6713C76.2297 71.7336 76.9802 72.7237 78.1872 73.1215L77.7261 73.7996C76.84 73.4877 76.1755 72.8548 75.8229 72.0546C75.4702 72.9633 74.7831 73.6775 73.8383 74.0256L73.3771 73.3385C74.6429 72.8909 75.3753 71.8105 75.3843 70.5989V69.8033H76.2342V70.6713ZM74.4712 75.9605C74.4712 75.0112 75.5064 74.4551 77.1926 74.4596C78.8562 74.4551 79.8779 75.0112 79.8779 75.9605C79.8779 76.9189 78.8562 77.4659 77.1926 77.4614C75.5064 77.4659 74.4712 76.9189 74.4712 75.9605ZM75.3301 75.9605C75.3256 76.4939 76.0218 76.7833 77.1926 76.7923C78.3544 76.7833 79.0416 76.4939 79.0371 75.9605C79.0416 75.4451 78.3544 75.1377 77.1926 75.1377C76.0218 75.1377 75.3256 75.4451 75.3301 75.9605ZM78.9467 74.2698V69.3784H79.8056V71.4127H80.981V72.136H79.8056V74.2698H78.9467ZM85.131 69.514C86.9574 69.5095 88.0197 70.0022 88.0242 70.9063C88.0197 71.815 86.9574 72.3078 85.131 72.3078C83.3046 72.3078 82.2332 71.815 82.2377 70.9063C82.2332 70.0022 83.3046 69.5095 85.131 69.514ZM81.4421 73.4922V72.805H88.8289V73.4922H81.4421ZM82.3281 74.758V74.1161H87.8977V76.0147H83.178V76.7381H88.1237V77.3981H82.3372V75.3909H87.0478V74.758H82.3281ZM83.1328 70.9063C83.1283 71.4081 83.8426 71.6658 85.131 71.6658C86.4284 71.6658 87.1427 71.4081 87.1382 70.9063C87.1427 70.4272 86.4284 70.1469 85.131 70.1469C83.8426 70.1469 83.1283 70.4272 83.1328 70.9063ZM98.0783 69.3874V71.7924H99.2356V72.4976H98.0783V74.8394H97.2194V69.3874H98.0783ZM91.6498 73.9352C92.2782 73.9352 93.0061 73.9352 93.7655 73.9171V73.3701C92.8433 73.2662 92.2556 72.8322 92.2647 72.1812C92.2556 71.4398 93.0287 70.9787 94.1905 70.9877C95.3523 70.9787 96.1118 71.4398 96.1163 72.1812C96.1118 72.8277 95.5377 73.2616 94.6245 73.3701V73.8855C95.3478 73.8493 96.0801 73.7906 96.7582 73.6911L96.8306 74.3059C95.0901 74.6088 93.1688 74.6224 91.7403 74.6224L91.6498 73.9352ZM91.8578 70.7165V70.0745H93.7655V69.3151H94.6245V70.0745H96.5322V70.7165H91.8578ZM92.6625 75.8882V75.2191H98.0783V77.4795H97.2194V75.8882H92.6625ZM93.0784 72.1812C93.0784 72.5609 93.4988 72.8096 94.1905 72.805C94.8731 72.8096 95.2981 72.5609 95.2935 72.1812C95.2981 71.7924 94.8731 71.5664 94.1905 71.5754C93.4988 71.5664 93.0784 71.7924 93.0784 72.1812ZM106.424 69.3874V75.2734H105.565V69.3874H106.424ZM99.8685 71.9371C99.873 70.7662 100.804 69.9344 102.029 69.9299C103.25 69.9344 104.181 70.7662 104.181 71.9371C104.181 73.126 103.25 73.9533 102.029 73.9533C100.804 73.9533 99.873 73.126 99.8685 71.9371ZM100.709 71.9371C100.705 72.7011 101.274 73.2029 102.029 73.2029C102.771 73.2029 103.34 72.7011 103.34 71.9371C103.34 71.1912 102.771 70.6803 102.029 70.6803C101.274 70.6803 100.705 71.1912 100.709 71.9371ZM101.125 77.3077V74.6766H101.993V76.6115H106.668V77.3077H101.125ZM114.018 69.3784V72.6604H115.32V73.3747H114.018V77.4795H113.168V69.3784H114.018ZM107.662 71.3494V70.6441H109.66V69.4868H110.519V70.6441H112.463V71.3494H107.662ZM108.078 73.8267C108.078 72.7237 108.928 71.9461 110.094 71.9461C111.256 71.9461 112.106 72.7237 112.111 73.8267C112.106 74.9388 111.256 75.7119 110.094 75.7164C108.928 75.7119 108.078 74.9388 108.078 73.8267ZM108.901 73.8267C108.896 74.532 109.403 75.0021 110.094 74.9931C110.781 75.0021 111.283 74.532 111.288 73.8267C111.283 73.1351 110.781 72.6559 110.094 72.6513C109.403 72.6559 108.896 73.1351 108.901 73.8267ZM122.454 69.3784V77.4975H121.604V73.1396H120.121V72.4253H121.604V69.3784H122.454ZM115.989 70.8069V70.1107H119.642V73.004H116.866V74.8484C118.159 74.8394 119.154 74.7987 120.284 74.5952L120.356 75.3005C119.145 75.513 118.078 75.5627 116.649 75.5717H116.007V72.3078H118.81V70.8069H115.989ZM132.282 69.3784V72.6061H133.539V73.3204H132.282V77.4704H131.423V69.3784H132.282ZM125.98 75.3095C128.01 74.2969 129.113 72.8322 129.289 70.9425H126.387V70.2282H130.166C130.157 72.57 129.127 74.6631 126.459 75.9786L125.98 75.3095ZM135.79 69.5049V70.2102H139.542V69.5049H140.401V72.1902H138.068V72.8955H141.36V73.5826H133.973V72.8955H137.228V72.1902H134.94V69.5049H135.79ZM134.859 74.8122V74.1703H140.428V76.06H135.709V76.7381H140.654V77.3981H134.868V75.4451H139.578V74.8122H134.859ZM135.79 71.5392H139.542V70.8431H135.79V71.5392ZM148.412 69.3784V72.6694H149.587V73.3747H148.412V77.4795H147.553V69.3784H148.412ZM141.902 75.201C143.086 73.9669 143.516 72.5745 143.602 70.9516H142.191V70.2463H144.416C144.411 72.2716 144.049 74.1161 142.58 75.6802L141.902 75.201ZM144.217 75.7435C145.424 74.333 145.776 72.6785 145.84 70.9516H144.678V70.2463H146.649C146.649 72.2942 146.391 74.4551 144.904 76.2137L144.217 75.7435ZM157.39 75.7525V76.4668H149.976V75.7525H151.748V73.6369C151.084 73.2707 150.677 72.692 150.681 71.9642C150.677 70.6894 151.929 69.853 153.665 69.8485C155.405 69.853 156.658 70.6894 156.658 71.9642C156.658 72.6785 156.269 73.2526 155.618 73.6188V75.7525H157.39ZM151.513 71.9642C151.513 72.8322 152.395 73.3973 153.665 73.4018C154.926 73.3973 155.821 72.8322 155.826 71.9642C155.821 71.0917 154.926 70.5357 153.665 70.5357C152.395 70.5357 151.513 71.0917 151.513 71.9642ZM152.598 75.7525H154.75V73.9533C154.42 74.0302 154.054 74.0708 153.665 74.0708C153.285 74.0708 152.924 74.0302 152.598 73.9533V75.7525ZM159.307 74.767C159.32 73.5826 159.668 73.221 160.265 72.8503C160.645 72.6197 160.934 72.2852 160.934 71.8105C160.934 71.2454 160.5 70.8883 159.958 70.8883C159.469 70.8883 158.995 71.1866 158.954 71.8557H157.978C158.014 70.7029 158.882 70.0745 159.958 70.0745C161.133 70.0745 161.92 70.7798 161.92 71.8105C161.92 72.5383 161.572 73.022 160.997 73.3747C160.455 73.7047 160.243 74.0302 160.229 74.767V74.8213H159.307V74.767ZM159.162 76.1323C159.158 75.7797 159.451 75.4903 159.804 75.4903C160.152 75.4903 160.441 75.7797 160.446 76.1323C160.441 76.4849 160.152 76.7697 159.804 76.7742C159.451 76.7697 159.158 76.4849 159.162 76.1323Z" fill="#787878"/>
<defs>
<clipPath id="clip0_2394_118766">
<rect width="8.10111" height="8.10111" fill="white" transform="translate(27.6821 39.1836)"/>
</clipPath>
</defs>
</svg>
