<svg width="301" height="286" viewBox="0 0 301 286" fill="none" xmlns="http://www.w3.org/2000/svg">
<rect x="68.499" y="122.582" width="186.946" height="103.599" fill="white"/>
<rect x="68.499" y="122.582" width="186.946" height="17.1367" fill="#1E1E1E"/>
<circle cx="78.623" cy="131.149" r="2.33683" fill="#BBBBBB"/>
<circle cx="88.7528" cy="131.149" r="2.33683" fill="#E8E8E8"/>
<circle cx="98.8778" cy="131.149" r="2.33683" fill="#F3F3F3"/>
<rect x="82.0859" y="151.457" width="159.079" height="7.92563" fill="#E8E8E8"/>
<rect x="200.405" y="151.457" width="40.7604" height="7.92563" fill="#CFF102"/>
<rect x="82.0859" y="163.91" width="159.079" height="7.92563" fill="#E8E8E8"/>
<rect x="190.779" y="163.91" width="50.3843" height="7.92563" fill="#CFF102"/>
<rect x="82.085" y="176.367" width="130.207" height="7.92563" fill="#E8E8E8"/>
<rect x="187.385" y="176.367" width="24.9091" height="7.92563" fill="#CFF102"/>
<rect x="82.0859" y="200.141" width="74.7273" height="7.92563" fill="#E8E8E8"/>
<rect x="231.484" y="208.457" width="9.05786" height="14.719" transform="rotate(-30 231.484 208.457)" fill="#BBBBBB"/>
<path fill-rule="evenodd" clip-rule="evenodd" d="M241.593 213.083L232.096 218.566L263.254 272.533L279.923 262.91L252.906 216.115L241.593 213.083Z" fill="#1E1E1E"/>
<circle cx="219.275" cy="178.249" r="29.438" transform="rotate(-30 219.275 178.249)" stroke="#BBBBBB" stroke-width="5.66116"/>
<circle cx="219.276" cy="178.249" r="31.7025" transform="rotate(-30 219.276 178.249)" stroke="#787878" stroke-width="5.66116"/>
<path d="M81.6714 58.1927L69.1656 36.5321C24.7271 65.2693 39.1049 113.254 51.8486 133.654L37.7258 141.808L80.3742 157.137L87.3368 113.165L70.6791 122.782C49.5818 84.9026 69.2168 63.9394 81.6714 58.1927Z" fill="#CFF102"/>
<rect x="69.0625" y="0.300781" width="186.946" height="103.599" fill="white"/>
<path fill-rule="evenodd" clip-rule="evenodd" d="M136.679 37.0156H189.168C190.376 37.0156 191.355 38.0015 191.355 39.2176V72.9818C191.355 74.1979 190.376 75.1838 189.168 75.1838H136.679C135.471 75.1838 134.492 74.1979 134.492 72.9818V39.2176C134.492 38.0015 135.471 37.0156 136.679 37.0156ZM155.816 65.1136L174.296 56.0987L155.816 47.0838V65.1136Z" fill="#BBBBBB"/>
<rect x="69.0625" y="0.300781" width="186.946" height="17.1367" fill="#1E1E1E"/>
<circle cx="79.1864" cy="8.86808" r="2.33683" fill="#BBBBBB"/>
<circle cx="89.3163" cy="8.86808" r="2.33683" fill="#E8E8E8"/>
<circle cx="99.4413" cy="8.86808" r="2.33683" fill="#F3F3F3"/>
<rect x="96.3252" y="86.7617" width="132.42" height="2.33683" fill="#F3F3F3"/>
<rect x="96.3252" y="86.7617" width="98.1467" height="2.33683" fill="#BBBBBB"/>
</svg>
