<svg width="246" height="301" viewBox="0 0 246 301" fill="none" xmlns="http://www.w3.org/2000/svg">
<rect y="15.3047" width="162.306" height="238.686" fill="white"/>
<rect width="12.9572" height="12.9572" transform="translate(17.731 41.2188)" fill="#CFF102"/>
<path fill-rule="evenodd" clip-rule="evenodd" d="M28.5993 45.1856L24.0694 50.9379H23.3625L19.7773 46.3853L20.4843 45.8286L23.7159 49.9324L27.8924 44.6289L28.5993 45.1856Z" fill="white"/>
<rect x="38.1899" y="43.6055" width="107.068" height="8.18351" fill="#BBBBBB"/>
<rect width="12.9572" height="12.9572" transform="translate(17.731 63.7227)" fill="#CFF102"/>
<path fill-rule="evenodd" clip-rule="evenodd" d="M28.5993 67.6895L24.0694 73.4418H23.3625L19.7773 68.8893L20.4843 68.3326L23.7159 72.4363L27.8924 67.1328L28.5993 67.6895Z" fill="white"/>
<rect x="38.1899" y="66.1094" width="107.068" height="8.18351" fill="#BBBBBB"/>
<rect width="12.9572" height="12.9572" transform="translate(17.731 86.2266)" fill="#CFF102"/>
<path fill-rule="evenodd" clip-rule="evenodd" d="M28.5993 90.1934L24.0694 95.9457H23.3625L19.7773 91.3932L20.4843 90.8365L23.7159 94.9402L27.8924 89.6367L28.5993 90.1934Z" fill="white"/>
<rect x="38.1899" y="88.6133" width="107.068" height="8.18351" fill="#BBBBBB"/>
<rect width="12.9572" height="12.9572" transform="translate(17.731 108.73)" fill="#CFF102"/>
<path fill-rule="evenodd" clip-rule="evenodd" d="M28.5993 112.697L24.0694 118.45H23.3625L19.7773 113.897L20.4843 113.34L23.7159 117.444L27.8924 112.141L28.5993 112.697Z" fill="white"/>
<rect x="38.1899" y="111.117" width="107.068" height="8.18351" fill="#BBBBBB"/>
<rect width="12.9572" height="12.9572" transform="translate(17.731 131.238)" fill="#E8E8E8"/>
<path fill-rule="evenodd" clip-rule="evenodd" d="M28.5993 135.205L24.0694 140.957H23.3625L19.7773 136.405L20.4843 135.848L23.7159 139.952L27.8924 134.648L28.5993 135.205Z" fill="white"/>
<rect x="38.1899" y="133.625" width="107.068" height="8.18351" fill="#E8E8E8"/>
<rect width="12.9572" height="12.9572" transform="translate(17.731 153.742)" fill="#E8E8E8"/>
<path fill-rule="evenodd" clip-rule="evenodd" d="M28.5993 157.709L24.0694 163.461H23.3625L19.7773 158.909L20.4843 158.352L23.7159 162.456L27.8924 157.152L28.5993 157.709Z" fill="white"/>
<rect x="38.1899" y="156.129" width="107.068" height="8.18351" fill="#E8E8E8"/>
<rect width="12.9572" height="12.9572" transform="translate(17.731 176.246)" fill="#E8E8E8"/>
<path fill-rule="evenodd" clip-rule="evenodd" d="M28.5993 180.213L24.0694 185.965H23.3625L19.7773 181.413L20.4843 180.856L23.7159 184.96L27.8924 179.656L28.5993 180.213Z" fill="white"/>
<rect x="38.1899" y="178.633" width="107.068" height="8.18351" fill="#E8E8E8"/>
<rect width="12.9572" height="12.9572" transform="translate(17.731 198.75)" fill="#E8E8E8"/>
<path fill-rule="evenodd" clip-rule="evenodd" d="M28.5993 202.717L24.0694 208.469H23.3625L19.7773 203.917L20.4843 203.36L23.7159 207.464L27.8924 202.16L28.5993 202.717Z" fill="white"/>
<rect x="38.1899" y="201.137" width="107.068" height="8.18351" fill="#E8E8E8"/>
<rect width="12.9572" height="12.9572" transform="translate(17.731 221.254)" fill="#E8E8E8"/>
<path fill-rule="evenodd" clip-rule="evenodd" d="M28.5993 225.221L24.0694 230.973H23.3625L19.7773 226.421L20.4843 225.864L23.7159 229.968L27.8924 224.664L28.5993 225.221Z" fill="white"/>
<rect x="38.1899" y="223.641" width="107.068" height="8.18351" fill="#E8E8E8"/>
<path d="M62.3974 5.07422H103.997L107.748 24.851H59.3286L62.3974 5.07422Z" fill="#1E1E1E"/>
<path d="M74.9034 0.300781H91.8947L93.4267 20.0776H73.6499L74.9034 0.300781Z" fill="#1E1E1E"/>
<rect x="161.538" y="207.52" width="10.9113" height="17.7309" transform="rotate(-30 161.538 207.52)" fill="#BBBBBB"/>
<path fill-rule="evenodd" clip-rule="evenodd" d="M173.71 213.089L162.269 219.695L199.802 284.706L219.882 273.112L187.336 216.74L173.71 213.089Z" fill="#1E1E1E"/>
<circle cx="146.826" cy="171.126" r="35.4619" transform="rotate(-30 146.826 171.126)" stroke="#BBBBBB" stroke-width="6.81959"/>
<circle cx="146.826" cy="171.125" r="38.1897" transform="rotate(-30 146.826 171.125)" stroke="#787878" stroke-width="6.81959"/>
</svg>
