<svg width="224" height="275" viewBox="0 0 224 275" fill="none" xmlns="http://www.w3.org/2000/svg">
<rect y="0.300781" width="139.73" height="63.6746" rx="31.8373" fill="#1E1E1E"/>
<path d="M93.3876 32.1381C93.3876 44.8371 83.093 55.1317 70.394 55.1317C57.695 55.1317 47.4004 44.8371 47.4004 32.1381C47.4004 19.4391 57.695 9.14453 70.394 9.14453C83.093 9.14453 93.3876 19.4391 93.3876 32.1381Z" fill="#E9FF3F"/>
<path d="M89.2065 32.1411C89.2065 42.5312 80.7836 50.954 70.3935 50.954C60.0034 50.954 51.5806 42.5312 51.5806 32.1411C51.5806 21.751 60.0034 13.3281 70.3935 13.3281C80.7836 13.3281 89.2065 21.751 89.2065 32.1411Z" fill="#E9FF3F"/>
<path d="M89.2065 32.1411C89.2065 42.5312 80.7836 50.954 70.3935 50.954C60.0034 50.954 51.5806 42.5312 51.5806 32.1411C51.5806 21.751 60.0034 13.3281 70.3935 13.3281C80.7836 13.3281 89.2065 21.751 89.2065 32.1411Z" fill="#E9FF3F"/>
<path fill-rule="evenodd" clip-rule="evenodd" d="M70.3935 48.4778C79.416 48.4778 86.7302 41.1636 86.7302 32.1411C86.7302 23.1186 79.416 15.8044 70.3935 15.8044C61.371 15.8044 54.0568 23.1186 54.0568 32.1411C54.0568 41.1636 61.371 48.4778 70.3935 48.4778ZM70.3935 50.954C80.7836 50.954 89.2065 42.5312 89.2065 32.1411C89.2065 21.751 80.7836 13.3281 70.3935 13.3281C60.0034 13.3281 51.5806 21.751 51.5806 32.1411C51.5806 42.5312 60.0034 50.954 70.3935 50.954Z" fill="#BCDB00"/>
<path fill-rule="evenodd" clip-rule="evenodd" d="M63.4785 28.627C63.4785 25.7587 65.8037 23.4336 68.6719 23.4336H72.2665C75.3775 23.4336 77.8994 25.9555 77.8994 29.0664H75.4231C75.4231 27.3231 74.0099 25.9098 72.2665 25.9098H68.6719C67.1713 25.9098 65.9547 27.1263 65.9547 28.627C65.9547 30.1276 67.1713 31.3441 68.6719 31.3441H72.8525C75.6398 31.3441 77.8994 33.6037 77.8994 36.391C77.8994 39.1783 75.6398 41.4378 72.8525 41.4378H68.2324C65.6069 41.4378 63.4785 39.3095 63.4785 36.684H65.9547C65.9547 37.9419 66.9745 38.9616 68.2324 38.9616H72.8525C74.2722 38.9616 75.4231 37.8107 75.4231 36.391C75.4231 34.9712 74.2722 33.8203 72.8525 33.8203H68.6719C65.8037 33.8203 63.4785 31.4952 63.4785 28.627Z" fill="#BCDB00"/>
<path fill-rule="evenodd" clip-rule="evenodd" d="M69.4502 43.7842V20.4922H71.9264V43.7842H69.4502Z" fill="#BCDB00"/>
<path d="M69.6941 77.7734L57.7463 57.0792L81.6419 57.0792L69.6941 77.7734Z" fill="#1E1E1E"/>
<path d="M17.4253 274.863V191.547H45.0287L56.0701 208.21H105.756V274.863H17.4253Z" fill="#BBBBBB"/>
<path d="M135.671 170.867V87.5508H163.274L174.316 104.214H224.002V170.867H135.671Z" fill="#BBBBBB"/>
<path d="M135.671 274.688V191.371H163.274L174.316 208.034H224.002V274.688H135.671Z" fill="#BBBBBB"/>
<path d="M16.9258 169.5V86.1836H44.5292L55.5706 102.847H105.257V169.5H16.9258Z" fill="#BBBBBB"/>
<path d="M31.7051 113.957L16.9258 171.044H105.602L122.229 113.957H31.7051Z" fill="#E8E8E8"/>
</svg>
