<svg width="32" height="32" viewBox="0 0 32 32" fill="none" xmlns="http://www.w3.org/2000/svg">
<rect width="32" height="32" rx="4" fill="#E9FF3F"/>
<path d="M12.1353 22V10.368H16.1913C17.0766 10.368 17.8046 10.488 18.3753 10.728C18.9513 10.968 19.3779 11.3013 19.6553 11.728C19.9379 12.1547 20.0793 12.6507 20.0793 13.216C20.0793 13.936 19.8686 14.512 19.4473 14.944C19.0313 15.376 18.4899 15.6213 17.8233 15.68C18.4099 15.7387 18.9006 15.88 19.2952 16.104C19.6953 16.328 19.9966 16.6347 20.1993 17.024C20.4073 17.408 20.5113 17.8827 20.5113 18.448C20.5113 19.1947 20.3433 19.8347 20.0073 20.368C19.6713 20.896 19.1833 21.3013 18.5433 21.584C17.9086 21.8613 17.1379 22 16.2313 22H12.1353ZM14.6313 19.888H16.0873C16.7219 19.888 17.1753 19.7733 17.4473 19.544C17.7193 19.3147 17.8553 18.9253 17.8553 18.376C17.8553 17.9493 17.7806 17.632 17.6313 17.424C17.4873 17.216 17.2766 17.0773 16.9993 17.008C16.7219 16.9387 16.3833 16.904 15.9833 16.904H14.6313V19.888ZM14.6313 15.096H16.0153C16.3513 15.096 16.6286 15.0427 16.8473 14.936C17.0713 14.8293 17.2366 14.672 17.3433 14.464C17.4553 14.256 17.5113 14 17.5113 13.696C17.5113 13.264 17.3726 12.952 17.0953 12.76C16.8179 12.5627 16.4366 12.464 15.9513 12.464H14.6313V15.096Z" fill="#1E1E1E"/>
</svg>
