<svg width="32" height="32" viewBox="0 0 32 32" fill="none" xmlns="http://www.w3.org/2000/svg">
<rect width="32" height="32" rx="4" fill="#E9FF3F"/>
<path d="M14.1341 22L14.1261 19.68H15.4301C16.2461 19.68 16.9128 19.56 17.4301 19.32C17.9475 19.08 18.3288 18.696 18.5741 18.168C18.8248 17.64 18.9501 16.944 18.9501 16.08C18.9501 15.2267 18.8301 14.552 18.5901 14.056C18.3501 13.5547 17.9715 13.1973 17.4541 12.984C16.9368 12.7707 16.2595 12.664 15.4221 12.664H14.0701V10.368H15.8141C17.0461 10.368 18.0888 10.584 18.9421 11.016C19.8008 11.448 20.4541 12.0853 20.9021 12.928C21.3501 13.7707 21.5741 14.8107 21.5741 16.048C21.5741 17.296 21.3421 18.3653 20.8781 19.256C20.4141 20.1413 19.7555 20.8213 18.9021 21.296C18.0541 21.7653 17.0488 22 15.8861 22H14.1341ZM12.1821 22V10.368H14.7261V22H12.1821Z" fill="#1E1E1E"/>
</svg>
