<svg width="32" height="32" viewBox="0 0 32 32" fill="none" xmlns="http://www.w3.org/2000/svg">
<rect width="32" height="32" rx="4" fill="#E9FF3F"/>
<path d="M17.0794 22.168C15.9541 22.168 14.9941 21.928 14.1994 21.448C13.4048 20.9627 12.7968 20.2693 12.3754 19.368C11.9541 18.4613 11.7434 17.3813 11.7434 16.128C11.7434 14.9013 11.9488 13.8427 12.3594 12.952C12.7701 12.056 13.3728 11.3653 14.1674 10.88C14.9674 10.3947 15.9461 10.152 17.1034 10.152C17.9408 10.152 18.6954 10.312 19.3674 10.632C20.0448 10.952 20.5808 11.4213 20.9754 12.04C21.3701 12.6533 21.5648 13.4053 21.5594 14.296H18.9594C18.9541 13.8747 18.8608 13.536 18.6794 13.28C18.4981 13.024 18.2528 12.84 17.9434 12.728C17.6394 12.6107 17.2954 12.552 16.9114 12.552C16.3888 12.552 15.9354 12.68 15.5514 12.936C15.1674 13.192 14.8688 13.5893 14.6554 14.128C14.4474 14.6613 14.3434 15.3467 14.3434 16.184C14.3434 17 14.4501 17.6747 14.6634 18.208C14.8821 18.736 15.1834 19.128 15.5674 19.384C15.9568 19.64 16.4074 19.768 16.9194 19.768C17.3568 19.768 17.7274 19.7093 18.0314 19.592C18.3354 19.4693 18.5674 19.296 18.7274 19.072C18.8928 18.8427 18.9754 18.5653 18.9754 18.24H21.5834C21.5888 19.04 21.3914 19.736 20.9914 20.328C20.5914 20.9147 20.0501 21.368 19.3674 21.688C18.6848 22.008 17.9221 22.168 17.0794 22.168Z" fill="#1E1E1E"/>
</svg>
